v 1.050414 -0.0008666412 -0.9484796
v 0.0006811619 -0.0008666412 -1.312655
v 0.8154335 -0.0008666412 -0.7360258
v 0.0006811619 -0.0008666412 -1.041154
v 1.050414 -0.0008666412 0.9497199
v 0.8154335 -0.0008666412 0.7372661
v 0.0006811619 -0.0008666412 1.313896
v 0.0006811619 -0.0008666412 1.042395
v -1.151553 -0.0008666412 0.0006201267
v -0.8140714 -0.0008666412 0.7372661
v -0.6390343 0.4524676 0.0006201267
v 1.453203 -0.0008666412 0.0006201267
v 1.152915 -0.0008666412 0.0006201267
v -0.8140714 -0.0008666412 -0.7360258
v 0.0006811619 0.4524676 -0.577769
v -1.258014 -0.0008666412 -1.107045
v -1.049052 -0.0008666412 0.9497199
v 0.0006811619 0.4524676 0.5790095
v -1.451841 -0.0008666412 0.0006201267
v 0.6403971 0.4524676 0.0006201267
v 0.0006811619 0.612397 0.0006201267
vn 0 0.999054 0
vn 0 0.999054 0
vn 0.2265694 0.9394818 -0.2480544
vn 0 0.9267861 -0.3691519
vn 0 0.999054 0
vn 0.2265694 0.9394818 0.2480544
vn 0 0.999054 0
vn 0 0.9267861 0.3691519
vn -0.2744224 0.9599903 0
vn -0.2265694 0.9394818 0.2480544
vn -0.4482559 0.8926054 0
vn 0 0.999054 0
vn 0.2265694 0.9726859 0
vn -0.1933653 0.9560839 -0.2109439
vn 0 0.8740501 -0.4804834
vn 0 0.999054 0
vn 0 0.999054 0
vn 0 0.8740501 0.4804834
vn 0 0.999054 0
vn 0.4482559 0.8926054 0
vn 0 0.999054 0
vt 0.4462469 0.6053022
vt 0.2586035 0.5106792
vt 0.4001477 0.6424143
vt 0.2566178 0.5781569
vt 0.4147644 0.9415997
vt 0.3796555 0.9027755
vt 0.2447738 0.9970905
vt 0.2459334 0.9502685
vt 0.05538423 0.770138
vt 0.1145297 0.897357
vt 0.1652959 0.768759
vt 0.494306 0.7826404
vt 0.4449841 0.7788043
vt 0.1095012 0.6343506
vt 0.2533376 0.6857063
vt 0.02679145 0.5650805
vt 0.07737292 0.9349055
vt 0.2485337 0.8510257
vt 0.005258828 0.7719834
vt 0.3360578 0.772668
vt 0.2507952 0.7696401

g 0000000000
f 1/1/1 2/2/2 3/3/3
f 2/2/2 4/4/4 3/3/3
f 5/5/5 6/6/6 7/7/7
f 6/6/6 8/8/8 7/7/7
f 9/9/9 10/10/10 11/11/11
f 12/12/12 13/13/13 5/5/5
f 13/13/13 6/6/6 5/5/5
f 4/4/4 14/14/14 15/15/15
f 16/16/16 14/14/14 2/2/2
f 14/14/14 4/4/4 2/2/2
f 17/17/17 7/7/7 10/10/10
f 7/7/7 8/8/8 10/10/10
f 8/8/8 6/6/6 18/18/18
f 10/10/10 9/9/9 17/17/17
f 9/9/9 19/19/19 17/17/17
f 16/16/16 19/19/19 14/14/14
f 19/19/19 9/9/9 14/14/14
f 13/13/13 3/3/3 20/20/20
f 3/3/3 13/13/13 1/1/1
f 13/13/13 12/12/12 1/1/1
f 11/11/11 21/21/21 15/15/15
f 10/10/10 18/18/18 11/11/11
f 14/14/14 9/9/9 11/11/11
f 15/15/15 21/21/21 20/20/20
f 14/14/14 11/11/11 15/15/15
f 3/3/3 4/4/4 15/15/15
f 18/18/18 21/21/21 11/11/11
f 6/6/6 20/20/20 18/18/18
f 10/10/10 8/8/8 18/18/18
f 20/20/20 21/21/21 18/18/18
f 3/3/3 15/15/15 20/20/20
f 6/6/6 13/13/13 20/20/20

