v -1.539621 -0.003911962 -0.9201903
v -1.125274 -0.003911962 -0.7692099
v -0.4994115 -0.003911962 -2.047126
v -0.2836159 -0.003911962 -1.631387
v 1.964832 -0.003911962 -0.8120962
v 2.054513 -0.003911962 0.3894419
v 2.397504 -0.003911962 -0.9915462
v 2.46886 -0.003911962 0.5404219
v -0.06710901 -0.003911962 1.269383
v 1.212855 -0.003911962 1.251619
v 0.169406 0.7324375 0.620295
v 1.134924 -0.003911962 -2.029456
v 0.996348 -0.003911962 -1.649151
v -1.035593 -0.003911962 0.4323286
v -0.4180826 0.7324376 -0.5115232
v -1.806689 -0.003911962 0.7882451
v 1.428651 -0.003911962 1.667358
v 1.347322 0.7324375 0.1317553
v -0.2056846 -0.003911962 1.649688
v 0.7598329 0.7324375 -1.000063
v 0.4646197 0.9922104 -0.1898842
v -0.9687117 -0.006549754 2.047118
v -0.9880017 -0.005835021 1.730927
v -1.973545 0.003752441 1.57303
v -1.783616 0.002282694 1.379023
v -1.878211 0.005787509 -0.1714587
v -2.152361 0.007096946 0.5910215
v -1.507705 0.4550334 0.1878338
v -0.01698103 -0.01488416 1.65067
v -0.2315506 -0.01250105 1.440607
v -0.3261394 -0.00899624 -0.1098757
v -1.121773 -0.0008784821 -0.4617772
v -0.6459997 0.4468255 0.222022
v -2.468879 0.01011183 0.578464
v -1.45519 0.4530875 1.048653
v -2.092778 0.008170619 -0.3815155
v -1.179446 0.0006361878 -1.037458
v 0.04259549 -0.01381045 0.6781201
v -0.5934876 0.4448797 1.082846
v -1.049082 0.6098785 0.6356067
vn 0 0.999054 0
vn -0.2734458 0.9551073 -0.09961241
vn 0 0.999054 0
vn -0.1376995 0.9326457 -0.328135
vn 0.3173925 0.9326457 -0.1621143
vn 0.2255928 0.9687796 0.08203375
vn 0 0.999054 0
vn 0 0.999054 0
vn -0.1328166 0.9189734 0.3652455
vn 0.1376995 0.9326457 0.328135
vn -0.17481 0.857448 0.4804834
vn 0 0.999054 0
vn 0.1328166 0.9189734 -0.3652455
vn -0.2714927 0.9512009 0.1386761
vn -0.4531388 0.8740501 -0.1640675
vn 0 0.999054 0
vn 0 0.999054 0
vn 0.4531388 0.8740501 0.1640675
vn 0 0.999054 0
vn 0.17481 0.857448 -0.4804834
vn 0 0.999054 0
vn 0.008789331 0.9980773 0
vn -0.001953185 0.9394818 0.3379009
vn 0.008789331 0.9980773 0
vn -0.2500076 0.9287393 0.2656331
vn -0.1865291 0.9619434 -0.1894589
vn -0.3271584 0.9433882 0.01953185
vn -0.3115329 0.8955352 -0.3105564
vn 0.008789331 0.9980773 0
vn 0.2558672 0.9336222 0.2421949
vn 0.4951323 0.7099826 -0.4961089
vn 0.02246162 0.9131138 -0.402356
vn 0.3457137 0.872097 -0.3418073
vn 0.008789331 0.9980773 0
vn -0.3291116 0.8769799 0.3457137
vn 0.008789331 0.9980773 0
vn 0.008789331 0.9980773 0
vn 0.6484573 0.7588122 -0.03320414
vn 0.328135 0.888699 0.3144627
vn 0.008789331 0.9980773 0
vt 0.2586035 0.5106792
vt 0.2566178 0.5781569
vt 0.4462469 0.6053022
vt 0.4001477 0.6424143
vt 0.3796555 0.9027755
vt 0.2459334 0.9502685
vt 0.4147644 0.9415997
vt 0.2447738 0.9970905
vt 0.05538423 0.770138
vt 0.1145297 0.897357
vt 0.1652959 0.768759
vt 0.494306 0.7826404
vt 0.4449841 0.7788043
vt 0.1095012 0.6343506
vt 0.2533376 0.6857063
vt 0.02679145 0.5650805
vt 0.07737292 0.9349055
vt 0.2485337 0.8510257
vt 0.005258828 0.7719834
vt 0.3360578 0.772668
vt 0.2507952 0.7696401
vt 0.4147644 0.9415997
vt 0.3796555 0.9027755
vt 0.2447738 0.9970905
vt 0.2459334 0.9502685
vt 0.05538423 0.770138
vt 0.1145297 0.897357
vt 0.1652959 0.768759
vt 0.494306 0.7826404
vt 0.4449841 0.7788043
vt 0.2566178 0.5781569
vt 0.1095012 0.6343506
vt 0.2533376 0.6857063
vt 0.07737292 0.9349055
vt 0.2485337 0.8510257
vt 0.005258828 0.7719834
vt 0.02679145 0.5650805
vt 0.4001477 0.6424143
vt 0.3360578 0.772668
vt 0.2507952 0.7696401

g 0000000000
f 1/1/1 2/2/2 3/3/3
f 2/2/2 4/4/4 3/3/3
f 5/5/5 6/6/6 7/7/7
f 6/6/6 8/8/8 7/7/7
f 9/9/9 10/10/10 11/11/11
f 7/7/7 12/12/12 5/5/5
f 12/12/12 13/13/13 5/5/5
f 2/2/2 14/14/14 15/15/15
f 16/16/16 14/14/14 1/1/1
f 14/14/14 2/2/2 1/1/1
f 8/8/8 6/6/6 17/17/17
f 6/6/6 10/10/10 17/17/17
f 6/6/6 5/5/5 18/18/18
f 17/17/17 10/10/10 19/19/19
f 10/10/10 9/9/9 19/19/19
f 16/16/16 19/19/19 14/14/14
f 19/19/19 9/9/9 14/14/14
f 13/13/13 4/4/4 20/20/20
f 3/3/3 4/4/4 12/12/12
f 4/4/4 13/13/13 12/12/12
f 11/11/11 21/21/21 15/15/15
f 10/10/10 18/18/18 11/11/11
f 14/14/14 9/9/9 11/11/11
f 15/15/15 21/21/21 20/20/20
f 14/14/14 11/11/11 15/15/15
f 4/4/4 2/2/2 15/15/15
f 18/18/18 21/21/21 11/11/11
f 5/5/5 20/20/20 18/18/18
f 10/10/10 6/6/6 18/18/18
f 20/20/20 21/21/21 18/18/18
f 4/4/4 15/15/15 20/20/20
f 5/5/5 13/13/13 20/20/20
f 22/22/22 23/23/23 24/24/24
f 23/23/23 25/25/25 24/24/24
f 26/26/26 27/27/27 28/28/28
f 29/29/29 30/30/30 22/22/22
f 30/30/30 23/23/23 22/22/22
f 31/31/31 32/32/32 33/33/33
f 34/34/34 24/24/24 27/27/27
f 24/24/24 25/25/25 27/27/27
f 25/25/25 23/23/23 35/35/35
f 27/27/27 26/26/26 34/34/34
f 26/26/26 36/36/36 34/34/34
f 37/37/37 36/36/36 32/32/32
f 36/36/36 26/26/26 32/32/32
f 30/30/30 38/38/38 39/39/39
f 28/28/28 40/40/40 33/33/33
f 27/27/27 35/35/35 28/28/28
f 32/32/32 26/26/26 28/28/28
f 33/33/33 40/40/40 39/39/39
f 32/32/32 28/28/28 33/33/33
f 38/38/38 31/31/31 33/33/33
f 35/35/35 40/40/40 28/28/28
f 23/23/23 39/39/39 35/35/35
f 27/27/27 25/25/25 35/35/35
f 39/39/39 40/40/40 35/35/35
f 38/38/38 33/33/33 39/39/39
f 23/23/23 30/30/30 39/39/39

