v 0.005709171 -0.0008666412 -1.544145
v 0.005709171 -0.0008666412 -1.224733
v 0.954809 -0.0008666412 -1.115704
v 0.7423551 -0.0008666412 -0.8657585
v 0.7423551 -0.0008666412 0.8675225
v 0.005709171 -0.0008666412 1.226497
v 0.954809 -0.0008666412 1.117468
v 0.005709171 -0.0008666412 1.545909
v -1.036066 -0.0008666412 0.0008819699
v -0.7309367 -0.0008666412 0.8675225
v -0.8183401 0.2518042 0.0008819699
v 1.318985 -0.0008666412 0.0008819699
v 1.047484 -0.0008666412 0.0008819699
v -0.7309367 -0.0008666412 -0.8657585
v 0.00570941 0.2518042 -0.9685856
v -0.9433905 -0.0008666412 -1.115704
v -0.9433905 -0.0008666412 1.117468
v 0.005709171 0.2518042 0.9703493
v -1.307566 -0.0008666412 0.0008819699
v 0.8297583 0.2518042 0.0008819401
v -0.3155937 0.4666978 -0.3771206
v 0.005709171 0.5885336 0.0008819699
v 0.3270123 0.4666978 -0.3771206
v -0.3155937 0.4666978 0.3788845
v 0.3270123 0.4666978 0.3788844
vn 0 0.999054 0
vn 0 0.9687796 -0.2402417
vn 0 0.999054 0
vn 0.301767 0.915067 -0.2597736
vn 0.301767 0.915067 0.2597736
vn 0 0.9687796 0.2402417
vn 0 0.999054 0
vn 0 0.999054 0
vn -0.4082156 0.9111606 0
vn -0.301767 0.915067 0.2597736
vn -0.618183 0.7842036 0
vn 0 0.999054 0
vn 0.4082156 0.9111606 0
vn -0.301767 0.915067 -0.2597736
vn 0 0.8281503 -0.5566576
vn 0 0.999054 0
vn 0 0.999054 0
vn 0 0.8281503 0.5566576
vn 0 0.999054 0
vn 0.618183 0.7842036 0
vn -0.2841884 0.9248329 -0.2441481
vn 0 0.999054 0
vn 0.2841884 0.9248329 -0.2441481
vn -0.2841884 0.9248329 0.2441481
vn 0.2841884 0.9248329 0.2441481
vt 0.2607124 0.007841468
vt 0.2580521 0.06007743
vt 0.4321387 0.0838061
vt 0.3918111 0.1212544
vt 0.3878301 0.3885872
vt 0.2555209 0.4446515
vt 0.4260382 0.4267956
vt 0.2564139 0.4936517
vt 0.0593203 0.2588091
vt 0.1204974 0.392568
vt 0.1183114 0.2547251
vt 0.4928947 0.2571707
vt 0.4438946 0.2562779
vt 0.1161254 0.1168823
vt 0.2539682 0.1190684
vt 0.0663107 0.06706762
vt 0.08304893 0.4328954
vt 0.2541638 0.3905776
vt 0.007084543 0.2614696
vt 0.3898206 0.2549208
vt 0.2062338 0.2069907
vt 0.2541307 0.2548874
vt 0.3018676 0.2070596
vt 0.2063027 0.3026245
vt 0.3019364 0.3026934

g 0000000000
f 1/1/1 2/2/2 3/3/3
f 2/2/2 4/4/4 3/3/3
f 5/5/5 6/6/6 7/7/7
f 6/6/6 8/8/8 7/7/7
f 9/9/9 10/10/10 11/11/11
f 7/7/7 12/12/12 5/5/5
f 12/12/12 13/13/13 5/5/5
f 2/2/2 14/14/14 15/15/15
f 14/14/14 2/2/2 16/16/16
f 2/2/2 1/1/1 16/16/16
f 8/8/8 6/6/6 17/17/17
f 6/6/6 10/10/10 17/17/17
f 6/6/6 5/5/5 18/18/18
f 17/17/17 10/10/10 19/19/19
f 10/10/10 9/9/9 19/19/19
f 16/16/16 19/19/19 14/14/14
f 19/19/19 9/9/9 14/14/14
f 13/13/13 4/4/4 20/20/20
f 3/3/3 4/4/4 12/12/12
f 4/4/4 13/13/13 12/12/12
f 15/15/15 14/14/14 21/21/21
f 14/14/14 11/11/11 21/21/21
f 22/22/22 23/23/23 21/21/21
f 11/11/11 24/24/24 21/21/21
f 18/18/18 24/24/24 10/10/10
f 24/24/24 11/11/11 10/10/10
f 14/14/14 9/9/9 11/11/11
f 22/22/22 25/25/25 23/23/23
f 15/15/15 21/21/21 23/23/23
f 4/4/4 2/2/2 15/15/15
f 22/22/22 21/21/21 24/24/24
f 18/18/18 25/25/25 24/24/24
f 20/20/20 25/25/25 5/5/5
f 25/25/25 18/18/18 5/5/5
f 10/10/10 6/6/6 18/18/18
f 22/22/22 24/24/24 25/25/25
f 20/20/20 23/23/23 25/25/25
f 15/15/15 23/23/23 4/4/4
f 23/23/23 20/20/20 4/4/4
f 5/5/5 13/13/13 20/20/20

