# Blender v2.64 (sub 0) OBJ File: 'BGEAR_plane.blend'
# www.blender.org
mtllib needle.mtl
o Tube.002_Tube.003
v -0.063918 1.177254 1.377308
v -0.063020 1.177174 1.377784
v -0.062123 1.177254 1.377308
v -0.063020 1.202839 1.382117
v -0.062300 1.201268 1.381362
v -0.063741 1.201268 1.381362
v -0.062300 1.184154 1.378472
v -0.063741 1.184154 1.378472
v -0.063020 1.181900 1.378582
v -0.062123 1.181980 1.378106
v -0.063918 1.181980 1.378106
v -0.063020 1.184073 1.378949
vt 0.018296 0.032051
vt 0.018296 0.013825
vt 0.023036 0.013825
vt 0.023036 0.032051
vt 0.027777 0.013825
vt 0.027777 0.032051
vt 0.023036 0.045680
vt 0.018583 0.146541
vt 0.018583 0.045680
vt 0.023036 0.155213
vt 0.027490 0.045680
vt 0.027490 0.146541
vn -0.474105 -0.146550 0.868160
vn -0.474105 -0.146580 0.868160
vn 0.000000 -0.166478 0.986023
vn 0.474105 -0.146580 0.868160
vn 0.474105 -0.146550 0.868160
vn -0.557085 -0.138249 0.818842
vn 0.557054 -0.138249 0.818842
usemtl instruments
s 1
f 11/1/1 1/2/2 2/3/3 9/4/3
f 9/4/3 2/3/3 3/5/4 10/6/5
f 12/7/3 9/4/3 10/6/5
f 11/1/1 9/4/3 12/7/3
f 6/8/6 8/9/6 12/7/3 4/10/3
f 4/10/3 12/7/3 7/11/7 5/12/7
