v -0.04215173 -0.3061203 -0.05772857
v -0.04215173 1.189148 -0.05772857
v 0.04215173 -0.3061203 -0.05772857
v 0.04215173 1.189148 -0.05772857
v -0.04215173 1.189148 0.05922577
v -0.04215173 -0.3061203 0.05922577
v 0.04215173 1.189148 0.05922577
v 0.04215173 -0.3061203 0.05922577
v 0.04215173 -0.3061203 -0.05772857
v 0.04215173 1.189148 -0.05772857
v 0.04215173 -0.3061203 -0.04319641
v 0.04215173 1.189148 -0.04319641
v -0.04215173 -0.3061203 -0.04319641
v -0.04215173 1.189148 -0.04319641
v -0.04215173 -0.3061203 -0.05772857
v -0.04215173 1.189148 -0.05772857
v 0.04215173 -0.3061203 0.04376709
v 0.04215173 1.189148 0.04376709
v 0.04215173 -0.3061203 0.05922577
v 0.04215173 1.189148 0.05922577
v -0.04215173 -0.3061203 0.05922577
v -0.04215173 1.189148 0.05922577
v -0.04215173 -0.3061203 0.04376709
v -0.04215173 1.189148 0.04376709
v 0.04215173 -0.3061203 -0.04319641
v 0.04215173 1.189148 -0.04319641
v 0.01551953 -0.3061203 -0.0328511
v 0.01551953 1.189148 -0.0328511
v -0.01551953 -0.3061203 -0.0328511
v -0.01551953 1.189148 -0.0328511
v -0.04215173 -0.3061203 -0.04319641
v -0.04215173 1.189148 -0.04319641
v 0.01551953 -0.3061203 0.03401504
v 0.01551953 1.189148 0.03401504
v 0.04215173 -0.3061203 0.04376709
v 0.04215173 1.189148 0.04376709
v -0.04215173 -0.3061203 0.04376709
v -0.04215173 1.189148 0.04376709
v -0.01551953 -0.3061203 0.03401504
v -0.01551953 1.189148 0.03401504
v 0.01551953 -0.3061203 -0.0328511
v 0.01551953 1.189148 -0.0328511
v 0.01551953 -0.3061203 0.03401504
v 0.01551953 1.189148 0.03401504
v -0.01551953 -0.3061203 0.03401504
v -0.01551953 1.189148 0.03401504
v -0.01551953 -0.3061203 -0.0328511
v -0.01551953 1.189148 -0.0328511
v -0.04215173 1.189441 0.4742888
v -0.04215173 1.189441 -5.671934
v 0.04215173 1.189441 0.4742894
v 0.04215173 1.189441 -5.671934
v -0.04215173 1.189441 -5.671934
v -0.04215173 1.203974 -5.671934
v 0.04215173 1.189441 -5.671934
v 0.04215173 1.203974 -5.671934
v -0.04215173 1.306395 -5.671934
v -0.04215174 1.306395 0.4742888
v 0.04215173 1.306395 -5.671934
v 0.04215173 1.306395 0.47429
v 0.04215173 1.189441 0.4742894
v 0.04215173 1.189441 -5.671934
v 0.04215174 1.203974 0.4742894
v 0.04215173 1.203974 -5.671934
v -0.04215174 1.203974 0.4742888
v -0.04215173 1.203974 -5.671934
v -0.04215173 1.189441 0.4742888
v -0.04215173 1.189441 -5.671934
v 0.04215174 1.290937 0.4742894
v 0.04215173 1.290937 -5.671934
v 0.04215173 1.306395 0.47429
v 0.04215173 1.306395 -5.671934
v -0.04215173 1.290937 -5.671934
v -0.04215173 1.306395 -5.671934
v 0.04215173 1.290937 -5.671934
v 0.04215173 1.306395 -5.671934
v -0.04215174 1.306395 0.4742888
v -0.04215173 1.306395 -5.671934
v -0.04215173 1.290937 0.4742888
v -0.04215173 1.290937 -5.671934
v 0.04215174 1.203974 0.4742894
v 0.04215173 1.203974 -5.671934
v 0.01551953 1.214318 0.4742888
v 0.01551953 1.214318 -5.671934
v -0.01551953 1.214318 -5.671934
v 0.01551953 1.214318 -5.671934
v -0.01551953 1.214318 0.4742888
v -0.01551953 1.214318 -5.671934
v -0.04215174 1.203974 0.4742888
v -0.04215173 1.203974 -5.671934
v 0.01551953 1.281185 0.4742888
v 0.01551953 1.281185 -5.671934
v 0.04215174 1.290937 0.4742894
v 0.04215173 1.290937 -5.671934
v -0.01551953 1.281185 -5.671934
v 0.01551953 1.281185 -5.671934
v -0.04215173 1.290937 0.4742888
v -0.04215173 1.290937 -5.671934
v -0.01551953 1.281185 0.4742888
v -0.01551953 1.281185 -5.671934
v 0.01551953 1.214318 0.4742888
v 0.01551953 1.214318 -5.671934
v 0.01551953 1.281185 0.4742888
v 0.01551953 1.281185 -5.671934
v -0.01551953 1.281185 0.4742888
v -0.01551953 1.281185 -5.671934
v -0.01551953 1.214318 0.4742888
v -0.01551953 1.214318 -5.671934
v -0.04215173 1.189441 0.4742888
v 0.04215173 1.189441 0.4742894
v -0.04215174 1.203974 0.4742888
v 0.04215174 1.203974 0.4742894
v -0.04215173 1.290937 0.4742888
v 0.04215174 1.290937 0.4742894
v -0.04215174 1.306395 0.4742888
v 0.04215173 1.306395 0.47429
v -0.01551953 1.214318 0.4742888
v 0.01551953 1.214318 0.4742888
v -0.01551953 1.281185 0.4742888
v 0.01551953 1.281185 0.4742888
vn 0 0 -0.9980773
vn 0 0 -0.9980773
vn 0 0 -0.9980773
vn 0 0 -0.9980773
vn 0 0 0.9980773
vn 0 0 0.9980773
vn 0 0 0.9980773
vn 0 0 0.9980773
vn 0.999054 0 0
vn 0.999054 0 0
vn 0.999054 0 0
vn 0.999054 0 0
vn -0.999054 0 0
vn -0.999054 0 0
vn -0.999054 0 0
vn -0.999054 0 0
vn 0.999054 0 0
vn 0.999054 0 0
vn 0.999054 0 0
vn 0.999054 0 0
vn -0.999054 0 0
vn -0.999054 0 0
vn -0.999054 0 0
vn -0.999054 0 0
vn 0.3613392 0 0.9297159
vn 0.3613392 0 0.9297159
vn 0.3613392 0 0.9297159
vn 0.3613392 0 0.9297159
vn -0.3613392 0 0.9297159
vn -0.3613392 0 0.9297159
vn -0.3613392 0 0.9297159
vn -0.3613392 0 0.9297159
vn 0.3427839 0 -0.9355754
vn 0.3427839 0 -0.9355754
vn 0.3427839 0 -0.9355754
vn 0.3427839 0 -0.9355754
vn -0.3427839 0 -0.9355754
vn -0.3427839 0 -0.9355754
vn -0.3427839 0 -0.9355754
vn -0.3427839 0 -0.9355754
vn 0.999054 0 0
vn 0.999054 0 0
vn 0.999054 0 0
vn 0.999054 0 0
vn -0.999054 0 0
vn -0.999054 0 0
vn -0.999054 0 0
vn -0.999054 0 0
vn 0 -0.999054 0
vn 0 -0.999054 0
vn 0 -0.999054 0
vn 0 -0.999054 0
vn 0 0 -0.9980773
vn 0 0 -0.9980773
vn 0 0 -0.9980773
vn 0 0 -0.9980773
vn 0 0.999054 0
vn 0 0.999054 0
vn 0 0.999054 0
vn 0 0.999054 0
vn 0.999054 0 0
vn 0.999054 0 0
vn 0.999054 0 0
vn 0.999054 0 0
vn -0.999054 0 0
vn -0.999054 0 0
vn -0.999054 0 0
vn -0.999054 0 0
vn 0.999054 0 0
vn 0.999054 0 0
vn 0.999054 0 0
vn 0.999054 0 0
vn 0 0 -0.9980773
vn 0 0 -0.9980773
vn 0 0 -0.9980773
vn 0 0 -0.9980773
vn -0.999054 0 0
vn -0.999054 0 0
vn -0.999054 0 0
vn -0.999054 0 0
vn 0.3613392 0.9306925 0
vn 0.3613392 0.9306925 0
vn 0.3613392 0.9306925 0
vn 0.3613392 0.9306925 0
vn 0 0 -0.9980773
vn 0 0 -0.9980773
vn -0.3613392 0.9306925 0
vn -0.3613392 0.9306925 0
vn -0.3613392 0.9306925 0
vn -0.3613392 0.9306925 0
vn 0.3427839 -0.9375286 0
vn 0.3427839 -0.9375286 0
vn 0.3427839 -0.9375286 0
vn 0.3427839 -0.9375286 0
vn 0 0 -0.9980773
vn 0 0 -0.9980773
vn -0.3427839 -0.9375286 0
vn -0.3427839 -0.9375286 0
vn -0.3427839 -0.9375286 0
vn -0.3427839 -0.9375286 0
vn 0.999054 0 0
vn 0.999054 0 0
vn 0.999054 0 0
vn 0.999054 0 0
vn -0.999054 0 0
vn -0.999054 0 0
vn -0.999054 0 0
vn -0.999054 0 0
vn 0 0 0.9980773
vn 0 0 0.9980773
vn 0 0 0.9980773
vn 0 0 0.9980773
vn 0 0 0.9980773
vn 0 0 0.9980773
vn 0 0 0.9980773
vn 0 0 0.9980773
vn 0 0 0.9980773
vn 0 0 0.9980773
vn 0 0 0.9980773
vn 0 0 0.9980773
vt 0.1182855 0.7323489
vt 0.002828807 0.7323456
vt 0.1182855 0.7388662
vt 0.002828807 0.7388703
vt 0.002828807 0.7204725
vt 0.1182855 0.7204752
vt 0.002828807 0.7139612
vt 0.1182855 0.7139623
vt 0.1182855 0.7388662
vt 0.002828807 0.7388703
vt 0.1182855 0.7399854
vt 0.002828807 0.7399918
vt 0.1182855 0.7312368
vt 0.002828807 0.7312337
vt 0.1182855 0.7323489
vt 0.002828807 0.7323456
vt 0.1182855 0.7495489
vt 0.002828807 0.7495488
vt 0.1182855 0.7507426
vt 0.002828807 0.7507425
vt 0.1182855 0.7204752
vt 0.002828807 0.7204725
vt 0.1182855 0.7216734
vt 0.002828807 0.7216665
vt 0.1182855 0.7399854
vt 0.002828807 0.7399918
vt 0.1182855 0.7421947
vt 0.002828807 0.7421973
vt 0.1182855 0.7290292
vt 0.002828807 0.7290254
vt 0.1182855 0.7312368
vt 0.002828807 0.7312337
vt 0.1182855 0.7473596
vt 0.002828807 0.7473601
vt 0.1182855 0.7495489
vt 0.002828807 0.7495488
vt 0.1182855 0.7216734
vt 0.002828807 0.7216665
vt 0.1182855 0.7238648
vt 0.002828807 0.723858
vt 0.1182855 0.7421947
vt 0.002828807 0.7421973
vt 0.1182855 0.7473596
vt 0.002828807 0.7473601
vt 0.1182855 0.7238648
vt 0.002828807 0.723858
vt 0.1182855 0.7290292
vt 0.002828807 0.7290254
vt 0.4774385 0.7323555
vt 0.002828807 0.7323532
vt 0.4774386 0.7388623
vt 0.002828807 0.7388683
vt 0.02362635 0.7242714
vt 0.02247624 0.7242714
vt 0.02362635 0.7310605
vt 0.02247652 0.7310605
vt 0.002828807 0.7204564
vt 0.4774385 0.7204725
vt 0.002828807 0.7139468
vt 0.4774386 0.7139614
vt 0.4774386 0.7388623
vt 0.002828807 0.7388683
vt 0.4774386 0.7399839
vt 0.002828807 0.7399943
vt 0.4774385 0.7312335
vt 0.002828807 0.731223
vt 0.4774385 0.7323555
vt 0.002828807 0.7323532
vt 0.4774386 0.7495489
vt 0.002828807 0.7495517
vt 0.4774385 0.7507426
vt 0.002828807 0.7507442
vt 0.01556563 0.7242714
vt 0.01433249 0.7242714
vt 0.01556625 0.7310605
vt 0.01433249 0.7310605
vt 0.4774385 0.7204725
vt 0.002828807 0.7204564
vt 0.4774385 0.7216748
vt 0.002828807 0.7216558
vt 0.4774386 0.7399839
vt 0.002828807 0.7399943
vt 0.4774386 0.7421973
vt 0.002828807 0.7422071
vt 0.02165618 0.7264201
vt 0.02165618 0.7288288
vt 0.4774385 0.7290273
vt 0.002828807 0.7290109
vt 0.4774385 0.7312335
vt 0.002828807 0.731223
vt 0.4774386 0.7473601
vt 0.002828807 0.7473662
vt 0.4774386 0.7495489
vt 0.002828807 0.7495517
vt 0.0163614 0.7264201
vt 0.0163614 0.7288288
vt 0.4774385 0.7216748
vt 0.002828807 0.7216558
vt 0.4774385 0.7238647
vt 0.002828807 0.7238451
vt 0.4774386 0.7421973
vt 0.002828807 0.7422071
vt 0.4774386 0.7473601
vt 0.002828807 0.7473662
vt 0.4774385 0.7238647
vt 0.002828807 0.7238451
vt 0.4774385 0.7290273
vt 0.002828807 0.7290109
vt 0.06603148 0.7278051
vt 0.06603148 0.7345942
vt 0.06489199 0.7278051
vt 0.06489193 0.7345942
vt 0.05797171 0.7278051
vt 0.05797174 0.7345942
vt 0.05673762 0.7278051
vt 0.05673762 0.7345942
vt 0.06406131 0.7299538
vt 0.06406131 0.7323626
vt 0.05876654 0.7299538
vt 0.05876654 0.7323626

g 0000000000
f 1/1/1 2/2/2 3/3/3
f 2/2/2 4/4/4 3/3/3
f 5/5/5 6/6/6 7/7/7
f 6/6/6 8/8/8 7/7/7
f 9/9/9 10/10/10 11/11/11
f 10/10/10 12/12/12 11/11/11
f 13/13/13 14/14/14 15/15/15
f 14/14/14 16/16/16 15/15/15
f 17/17/17 18/18/18 19/19/19
f 18/18/18 20/20/20 19/19/19
f 21/21/21 22/22/22 23/23/23
f 22/22/22 24/24/24 23/23/23
f 25/25/25 26/26/26 27/27/27
f 26/26/26 28/28/28 27/27/27
f 29/29/29 30/30/30 31/31/31
f 30/30/30 32/32/32 31/31/31
f 33/33/33 34/34/34 35/35/35
f 34/34/34 36/36/36 35/35/35
f 37/37/37 38/38/38 39/39/39
f 38/38/38 40/40/40 39/39/39
f 41/41/41 42/42/42 43/43/43
f 42/42/42 44/44/44 43/43/43
f 45/45/45 46/46/46 47/47/47
f 46/46/46 48/48/48 47/47/47
f 49/49/49 50/50/50 51/51/51
f 50/50/50 52/52/52 51/51/51
f 53/53/53 54/54/54 55/55/55
f 54/54/54 56/56/56 55/55/55
f 57/57/57 58/58/58 59/59/59
f 58/58/58 60/60/60 59/59/59
f 61/61/61 62/62/62 63/63/63
f 62/62/62 64/64/64 63/63/63
f 65/65/65 66/66/66 67/67/67
f 66/66/66 68/68/68 67/67/67
f 69/69/69 70/70/70 71/71/71
f 70/70/70 72/72/72 71/71/71
f 73/73/73 74/74/74 75/75/75
f 74/74/74 76/76/76 75/75/75
f 77/77/77 78/78/78 79/79/79
f 78/78/78 80/80/80 79/79/79
f 81/81/81 82/82/82 83/83/83
f 82/82/82 84/84/84 83/83/83
f 54/54/54 85/85/85 56/56/56
f 85/85/85 86/86/86 56/56/56
f 87/87/87 88/88/88 89/89/89
f 88/88/88 90/90/90 89/89/89
f 91/91/91 92/92/92 93/93/93
f 92/92/92 94/94/94 93/93/93
f 95/95/95 73/73/73 96/96/96
f 73/73/73 75/75/75 96/96/96
f 97/97/97 98/98/98 99/99/99
f 98/98/98 100/100/100 99/99/99
f 101/101/101 102/102/102 103/103/103
f 102/102/102 104/104/104 103/103/103
f 85/85/85 95/95/95 86/86/86
f 95/95/95 96/96/96 86/86/86
f 105/105/105 106/106/106 107/107/107
f 106/106/106 108/108/108 107/107/107
f 109/109/109 110/110/110 111/111/111
f 110/110/110 112/112/112 111/111/111
f 113/113/113 114/114/114 115/115/115
f 114/114/114 116/116/116 115/115/115
f 111/111/111 112/112/112 117/117/117
f 112/112/112 118/118/118 117/117/117
f 119/119/119 120/120/120 113/113/113
f 120/120/120 114/114/114 113/113/113
f 117/117/117 118/118/118 119/119/119
f 118/118/118 120/120/120 119/119/119

