v -0.04215172 -0.3061203 -0.05759464
v -0.04215172 1.189148 -0.05759464
v 0.04215172 -0.3061203 -0.05759464
v 0.04215172 1.189148 -0.05759464
v -0.04215172 1.189148 0.05935966
v -0.04215172 -0.3061203 0.05935966
v 0.04215172 1.189148 0.05935966
v 0.04215172 -0.3061203 0.05935966
v 0.04215172 -0.3061203 -0.05759464
v 0.04215172 1.189148 -0.05759464
v 0.04215172 -0.3061203 -0.04306259
v 0.04215172 1.189148 -0.04306259
v -0.04215172 -0.3061203 -0.04306259
v -0.04215172 1.189148 -0.04306259
v -0.04215172 -0.3061203 -0.05759464
v -0.04215172 1.189148 -0.05759464
v 0.04215172 -0.3061203 0.04390091
v 0.04215172 1.189148 0.04390091
v 0.04215172 -0.3061203 0.05935966
v 0.04215172 1.189148 0.05935966
v -0.04215172 -0.3061203 0.05935966
v -0.04215172 1.189148 0.05935966
v -0.04215172 -0.3061203 0.04390091
v -0.04215172 1.189148 0.04390091
v 0.04215172 -0.3061203 -0.04306259
v 0.04215172 1.189148 -0.04306259
v 0.01551953 -0.3061203 -0.03271721
v 0.01551953 1.189148 -0.03271721
v -0.01551953 -0.3061203 -0.03271721
v -0.01551953 1.189148 -0.03271721
v -0.04215172 -0.3061203 -0.04306259
v -0.04215172 1.189148 -0.04306259
v 0.01551953 -0.3061203 0.03414894
v 0.01551953 1.189148 0.03414894
v 0.04215172 -0.3061203 0.04390091
v 0.04215172 1.189148 0.04390091
v -0.04215172 -0.3061203 0.04390091
v -0.04215172 1.189148 0.04390091
v -0.01551953 -0.3061203 0.03414894
v -0.01551953 1.189148 0.03414894
v 0.01551953 -0.3061203 -0.03271721
v 0.01551953 1.189148 -0.03271721
v 0.01551953 -0.3061203 0.03414894
v 0.01551953 1.189148 0.03414894
v -0.01551953 -0.3061203 0.03414894
v -0.01551953 1.189148 0.03414894
v -0.01551953 -0.3061203 -0.03271721
v -0.01551953 1.189148 -0.03271721
vn 0 0 -0.9980773
vn 0 0 -0.9980773
vn 0 0 -0.9980773
vn 0 0 -0.9980773
vn 0 0 0.9980773
vn 0 0 0.9980773
vn 0 0 0.9980773
vn 0 0 0.9980773
vn 0.999054 0 0
vn 0.999054 0 0
vn 0.999054 0 0
vn 0.999054 0 0
vn -0.999054 0 0
vn -0.999054 0 0
vn -0.999054 0 0
vn -0.999054 0 0
vn 0.999054 0 0
vn 0.999054 0 0
vn 0.999054 0 0
vn 0.999054 0 0
vn -0.999054 0 0
vn -0.999054 0 0
vn -0.999054 0 0
vn -0.999054 0 0
vn 0.3613392 0 0.9297159
vn 0.3613392 0 0.9297159
vn 0.3613392 0 0.9297159
vn 0.3613392 0 0.9297159
vn -0.3613392 0 0.9297159
vn -0.3613392 0 0.9297159
vn -0.3613392 0 0.9297159
vn -0.3613392 0 0.9297159
vn 0.3427839 0 -0.9355754
vn 0.3427839 0 -0.9355754
vn 0.3427839 0 -0.9355754
vn 0.3427839 0 -0.9355754
vn -0.3427839 0 -0.9355754
vn -0.3427839 0 -0.9355754
vn -0.3427839 0 -0.9355754
vn -0.3427839 0 -0.9355754
vn 0.999054 0 0
vn 0.999054 0 0
vn 0.999054 0 0
vn 0.999054 0 0
vn -0.999054 0 0
vn -0.999054 0 0
vn -0.999054 0 0
vn -0.999054 0 0
vt 0.2037843 0.7323489
vt 0.08832763 0.7323456
vt 0.2037844 0.7388662
vt 0.08832763 0.7388703
vt 0.08832763 0.7204725
vt 0.2037843 0.7204752
vt 0.08832763 0.7139612
vt 0.2037843 0.7139622
vt 0.2037844 0.7388662
vt 0.08832763 0.7388703
vt 0.2037844 0.7399854
vt 0.08832763 0.7399918
vt 0.2037843 0.7312368
vt 0.08832763 0.7312337
vt 0.2037843 0.7323489
vt 0.08832763 0.7323456
vt 0.2037844 0.7495489
vt 0.08832763 0.7495488
vt 0.2037843 0.7507426
vt 0.08832763 0.7507425
vt 0.2037843 0.7204752
vt 0.08832763 0.7204725
vt 0.2037843 0.7216734
vt 0.08832763 0.7216665
vt 0.2037844 0.7399854
vt 0.08832763 0.7399918
vt 0.2037844 0.7421947
vt 0.08832763 0.7421973
vt 0.2037843 0.7290292
vt 0.08832763 0.7290254
vt 0.2037843 0.7312368
vt 0.08832763 0.7312337
vt 0.2037844 0.7473596
vt 0.08832763 0.7473601
vt 0.2037844 0.7495489
vt 0.08832763 0.7495488
vt 0.2037843 0.7216734
vt 0.08832763 0.7216665
vt 0.2037843 0.7238648
vt 0.08832763 0.723858
vt 0.2037844 0.7421947
vt 0.08832763 0.7421973
vt 0.2037844 0.7473596
vt 0.08832763 0.7473601
vt 0.2037843 0.7238648
vt 0.08832763 0.723858
vt 0.2037843 0.7290292
vt 0.08832763 0.7290254

g 0000000000
f 1/1/1 2/2/2 3/3/3
f 2/2/2 4/4/4 3/3/3
f 5/5/5 6/6/6 7/7/7
f 6/6/6 8/8/8 7/7/7
f 9/9/9 10/10/10 11/11/11
f 10/10/10 12/12/12 11/11/11
f 13/13/13 14/14/14 15/15/15
f 14/14/14 16/16/16 15/15/15
f 17/17/17 18/18/18 19/19/19
f 18/18/18 20/20/20 19/19/19
f 21/21/21 22/22/22 23/23/23
f 22/22/22 24/24/24 23/23/23
f 25/25/25 26/26/26 27/27/27
f 26/26/26 28/28/28 27/27/27
f 29/29/29 30/30/30 31/31/31
f 30/30/30 32/32/32 31/31/31
f 33/33/33 34/34/34 35/35/35
f 34/34/34 36/36/36 35/35/35
f 37/37/37 38/38/38 39/39/39
f 38/38/38 40/40/40 39/39/39
f 41/41/41 42/42/42 43/43/43
f 42/42/42 44/44/44 43/43/43
f 45/45/45 46/46/46 47/47/47
f 46/46/46 48/48/48 47/47/47

