v -1.436753 0.9428255 0.513507
v -1.436753 2.249122 0.513507
v -1.349673 0.9428255 0.513507
v -1.349673 2.249122 0.513507
v -1.436753 2.199366 0.5849979
v -1.436753 0.9428255 0.5849979
v -1.349673 2.199366 0.5849979
v -1.349673 0.9428255 0.5849979
v -1.349673 0.9428255 0.5849979
v -1.349673 0.9428255 0.513507
v -1.349673 2.199366 0.5849979
v -1.349673 2.249122 0.513507
v -1.436753 0.9428255 0.5849979
v -1.436753 2.199366 0.5849979
v -1.436753 0.9428255 0.513507
v -1.436753 2.249122 0.513507
v -1.414194 0.9108697 0.491303
v -1.414194 2.893926 -0.6403075
v -1.372241 0.9108697 0.491303
v -1.372241 2.893926 -0.6403075
v -1.414194 2.83721 -0.5360754
v -1.414194 0.9466151 0.553216
v -1.372241 2.83721 -0.5360754
v -1.372241 0.9466151 0.553216
v -1.372241 0.9466151 0.553216
v -1.372241 0.9108697 0.491303
v -1.372241 2.83721 -0.5360754
v -1.372241 2.893926 -0.6403075
v -1.414194 0.9466151 0.553216
v -1.414194 2.83721 -0.5360754
v -1.414194 0.9108697 0.491303
v -1.414194 2.893926 -0.6403075
v -1.471977 -0.3037942 -0.5875714
v -1.471977 0.9527465 -0.5875714
v 1.426174 -0.3037942 -0.5875714
v 1.426174 0.9527465 -0.5875714
v -1.471977 0.9527465 -0.5875714
v -1.471977 0.9527465 0.6181316
v 1.426174 0.9527465 -0.5875714
v 1.426174 0.9527465 0.6181316
v -1.471977 0.9527465 0.6181316
v -1.471977 -0.3037942 0.6181316
v 1.426174 0.9527465 0.6181316
v 1.426174 -0.3037942 0.6181316
v 1.426174 -0.3037942 -0.5875714
v 1.426174 0.9527465 -0.5875714
v 1.426174 -0.3037942 0.6181316
v 1.426174 0.9527465 0.6181316
v -1.471977 -0.3037942 0.6181316
v -1.471977 0.9527465 0.6181316
v -1.471977 -0.3037942 -0.5875714
v -1.471977 0.9527465 -0.5875714
v -1.471977 2.911095 -0.683542
v -1.471977 2.951724 -0.6600847
v 1.426174 2.911095 -0.683542
v 1.426174 2.951724 -0.6600847
v -1.471977 2.951724 -0.6600847
v -1.471977 2.128067 0.7665315
v 1.426174 2.951724 -0.6600847
v 1.426174 2.128067 0.7665315
v -1.471977 2.128067 0.7665315
v -1.471977 2.087437 0.7430742
v 1.426174 2.128067 0.7665315
v 1.426174 2.087437 0.7430742
v -1.471977 2.087437 0.7430742
v -1.471977 2.911095 -0.683542
v 1.426174 2.087437 0.7430742
v 1.426174 2.911095 -0.683542
v 1.426174 2.911095 -0.683542
v 1.426174 2.951724 -0.6600847
v 1.426174 2.087437 0.7430742
v 1.426174 2.128067 0.7665315
v -1.471977 2.087437 0.7430742
v -1.471977 2.128067 0.7665315
v -1.471977 2.911095 -0.683542
v -1.471977 2.951724 -0.6600847
v 1.255784 0.9428255 0.513507
v 1.255784 2.249122 0.513507
v 1.342864 0.9428255 0.513507
v 1.342864 2.249122 0.513507
v 1.255784 2.199366 0.5849979
v 1.255784 0.9428255 0.5849979
v 1.342864 2.199366 0.5849979
v 1.342864 0.9428255 0.5849979
v 1.342864 0.9428255 0.5849979
v 1.342864 0.9428255 0.513507
v 1.342864 2.199366 0.5849979
v 1.342864 2.249122 0.513507
v 1.255784 0.9428255 0.5849979
v 1.255784 2.199366 0.5849979
v 1.255784 0.9428255 0.513507
v 1.255784 2.249122 0.513507
v 1.278342 0.9108697 0.491303
v 1.278342 2.893926 -0.6403075
v 1.320295 0.9108697 0.491303
v 1.320295 2.893926 -0.6403075
v 1.278342 2.83721 -0.5360754
v 1.278342 0.9466151 0.553216
v 1.320295 2.83721 -0.5360754
v 1.320295 0.9466151 0.553216
v 1.320295 0.9466151 0.553216
v 1.320295 0.9108697 0.491303
v 1.320295 2.83721 -0.5360754
v 1.320295 2.893926 -0.6403075
v 1.278342 0.9466151 0.553216
v 1.278342 2.83721 -0.5360754
v 1.278342 0.9108697 0.491303
v 1.278342 2.893926 -0.6403075
vn 0 0 -0.9980773
vn 0 0 -0.9980773
vn 0 0 -0.9980773
vn 0 0 -0.9980773
vn 0 0 0.9980773
vn 0 0 0.9980773
vn 0 0 0.9980773
vn 0 0 0.9980773
vn 0.999054 0 0
vn 0.999054 0 0
vn 0.999054 0 0
vn 0.999054 0 0
vn -0.999054 0 0
vn -0.999054 0 0
vn -0.999054 0 0
vn -0.999054 0 0
vn 0 -0.4951323 -0.8652608
vn 0 -0.4951323 -0.8652608
vn 0 -0.4951323 -0.8652608
vn 0 -0.4951323 -0.8652608
vn 0 0.4980621 0.8633076
vn 0 0.4980621 0.8633076
vn 0 0.4980621 0.8633076
vn 0 0.4980621 0.8633076
vn 0.999054 0 0
vn 0.999054 0 0
vn 0.999054 0 0
vn 0.999054 0 0
vn -0.999054 0 0
vn -0.999054 0 0
vn -0.999054 0 0
vn -0.999054 0 0
vn 0 0 -0.9980773
vn 0 0 -0.9980773
vn 0 0 -0.9980773
vn 0 0 -0.9980773
vn 0 0.999054 0
vn 0 0.999054 0
vn 0 0.999054 0
vn 0 0.999054 0
vn 0 0 0.9980773
vn 0 0 0.9980773
vn 0 0 0.9980773
vn 0 0 0.9980773
vn 0.999054 0 0
vn 0.999054 0 0
vn 0.999054 0 0
vn 0.999054 0 0
vn -0.999054 0 0
vn -0.999054 0 0
vn -0.999054 0 0
vn -0.999054 0 0
vn 0 0.4990387 -0.8633076
vn 0 0.4990387 -0.8633076
vn 0 0.4990387 -0.8633076
vn 0 0.4990387 -0.8633076
vn 0 0.8642842 0.4980621
vn 0 0.8642842 0.4980621
vn 0 0.8642842 0.4980621
vn 0 0.8642842 0.4980621
vn 0 -0.4990387 0.8633076
vn 0 -0.4990387 0.8633076
vn 0 -0.4990387 0.8633076
vn 0 -0.4990387 0.8633076
vn 0 -0.8642842 -0.4980621
vn 0 -0.8642842 -0.4980621
vn 0 -0.8642842 -0.4980621
vn 0 -0.8642842 -0.4980621
vn 0.999054 0 0
vn 0.999054 0 0
vn 0.999054 0 0
vn 0.999054 0 0
vn -0.999054 0 0
vn -0.999054 0 0
vn -0.999054 0 0
vn -0.999054 0 0
vn 0 0 -0.9980773
vn 0 0 -0.9980773
vn 0 0 -0.9980773
vn 0 0 -0.9980773
vn 0 0 0.9980773
vn 0 0 0.9980773
vn 0 0 0.9980773
vn 0 0 0.9980773
vn 0.999054 0 0
vn 0.999054 0 0
vn 0.999054 0 0
vn 0.999054 0 0
vn -0.999054 0 0
vn -0.999054 0 0
vn -0.999054 0 0
vn -0.999054 0 0
vn 0 -0.4951323 -0.8652608
vn 0 -0.4951323 -0.8652608
vn 0 -0.4951323 -0.8652608
vn 0 -0.4951323 -0.8652608
vn 0 0.4980621 0.8633076
vn 0 0.4980621 0.8633076
vn 0 0.4980621 0.8633076
vn 0 0.4980621 0.8633076
vn 0.999054 0 0
vn 0.999054 0 0
vn 0.999054 0 0
vn 0.999054 0 0
vn -0.999054 0 0
vn -0.999054 0 0
vn -0.999054 0 0
vn -0.999054 0 0
vt 0.02824591 0.4168703
vt 0.02824592 0.381993
vt 0.02592088 0.4168704
vt 0.02592088 0.3819929
vt 0.03015326 0.3833215
vt 0.03015321 0.4168703
vt 0.03247859 0.3833216
vt 0.03247859 0.4168703
vt 0.02401069 0.4168703
vt 0.02592088 0.4168704
vt 0.02401071 0.3833215
vt 0.02592088 0.3819929
vt 0.03015321 0.4168703
vt 0.03015326 0.3833215
vt 0.02824591 0.4168703
vt 0.02824592 0.381993
vt 0.04000792 0.4559145
vt 0.0400079 0.3908154
vt 0.03856871 0.455919
vt 0.03856868 0.3908198
vt 0.04204633 0.3936862
vt 0.04204639 0.4558966
vt 0.04324243 0.3936767
vt 0.04324247 0.4558872
vt 0.03677479 0.4559165
vt 0.03856871 0.455919
vt 0.03677479 0.3937039
vt 0.03856868 0.3908198
vt 0.04204639 0.4558966
vt 0.04204633 0.3936862
vt 0.04000792 0.4559145
vt 0.0400079 0.3908154
vt 0.04532216 0.2726865
vt 0.04532217 0.3194572
vt 0.1506706 0.2726864
vt 0.1506706 0.3194572
vt 0.06752986 0.4819785
vt 0.005594715 0.4819785
vt 0.06752986 0.5875295
vt 0.005594715 0.5875295
vt 0.05445158 0.3713784
vt 0.0143801 0.3713784
vt 0.05445158 0.4669271
vt 0.0143801 0.4669271
vt 0.05445158 0.3713784
vt 0.0143801 0.3713784
vt 0.05445158 0.4121958
vt 0.0143801 0.4121958
vt 0.05445158 0.4267867
vt 0.0143801 0.4267867
vt 0.05445158 0.4669271
vt 0.0143801 0.4669271
vt 0.06721604 0.3676525
vt 0.06496668 0.3676525
vt 0.06721592 0.4693065
vt 0.06496656 0.4693067
vt 0.06496668 0.3676525
vt 0.007379651 0.3676525
vt 0.06496656 0.4693067
vt 0.007379651 0.4693067
vt 0.007379651 0.3676525
vt 0.005131602 0.3676525
vt 0.007379651 0.4693067
vt 0.005131721 0.4693065
vt 0.06512249 0.3676525
vt 0.007370591 0.3676525
vt 0.06512237 0.4693065
vt 0.007370472 0.4693065
vt 0.06496656 0.4713286
vt 0.06496656 0.4693067
vt 0.00737977 0.4713286
vt 0.007379651 0.4693067
vt 0.007379651 0.3653083
vt 0.007379651 0.3676525
vt 0.06496644 0.3653083
vt 0.06496668 0.3676525
vt 0.02824591 0.4168703
vt 0.02824592 0.381993
vt 0.02592088 0.4168704
vt 0.02592088 0.3819929
vt 0.03015326 0.3833215
vt 0.03015321 0.4168703
vt 0.03247859 0.3833216
vt 0.03247859 0.4168703
vt 0.02401069 0.4168703
vt 0.02592088 0.4168704
vt 0.02401071 0.3833215
vt 0.02592088 0.3819929
vt 0.03015321 0.4168703
vt 0.03015326 0.3833215
vt 0.02824591 0.4168703
vt 0.02824592 0.381993
vt 0.04000792 0.4559145
vt 0.0400079 0.3908154
vt 0.03856871 0.455919
vt 0.03856868 0.3908198
vt 0.04204633 0.3936862
vt 0.04204639 0.4558966
vt 0.04324243 0.3936767
vt 0.04324247 0.4558872
vt 0.03677479 0.4559165
vt 0.03856871 0.455919
vt 0.03677479 0.3937039
vt 0.03856868 0.3908198
vt 0.04204639 0.4558966
vt 0.04204633 0.3936862
vt 0.04000792 0.4559145
vt 0.0400079 0.3908154

g 0000000000
f 1/1/1 2/2/2 3/3/3
f 2/2/2 4/4/4 3/3/3
f 5/5/5 6/6/6 7/7/7
f 6/6/6 8/8/8 7/7/7
f 9/9/9 10/10/10 11/11/11
f 10/10/10 12/12/12 11/11/11
f 13/13/13 14/14/14 15/15/15
f 14/14/14 16/16/16 15/15/15
f 17/17/17 18/18/18 19/19/19
f 18/18/18 20/20/20 19/19/19
f 21/21/21 22/22/22 23/23/23
f 22/22/22 24/24/24 23/23/23
f 25/25/25 26/26/26 27/27/27
f 26/26/26 28/28/28 27/27/27
f 29/29/29 30/30/30 31/31/31
f 30/30/30 32/32/32 31/31/31
f 33/33/33 34/34/34 35/35/35
f 34/34/34 36/36/36 35/35/35
f 37/37/37 38/38/38 39/39/39
f 38/38/38 40/40/40 39/39/39
f 41/41/41 42/42/42 43/43/43
f 42/42/42 44/44/44 43/43/43
f 45/45/45 46/46/46 47/47/47
f 46/46/46 48/48/48 47/47/47
f 49/49/49 50/50/50 51/51/51
f 50/50/50 52/52/52 51/51/51
f 53/53/53 54/54/54 55/55/55
f 54/54/54 56/56/56 55/55/55
f 57/57/57 58/58/58 59/59/59
f 58/58/58 60/60/60 59/59/59
f 61/61/61 62/62/62 63/63/63
f 62/62/62 64/64/64 63/63/63
f 65/65/65 66/66/66 67/67/67
f 66/66/66 68/68/68 67/67/67
f 69/69/69 70/70/70 71/71/71
f 70/70/70 72/72/72 71/71/71
f 73/73/73 74/74/74 75/75/75
f 74/74/74 76/76/76 75/75/75
f 77/77/77 78/78/78 79/79/79
f 78/78/78 80/80/80 79/79/79
f 81/81/81 82/82/82 83/83/83
f 82/82/82 84/84/84 83/83/83
f 85/85/85 86/86/86 87/87/87
f 86/86/86 88/88/88 87/87/87
f 89/89/89 90/90/90 91/91/91
f 90/90/90 92/92/92 91/91/91
f 93/93/93 94/94/94 95/95/95
f 94/94/94 96/96/96 95/95/95
f 97/97/97 98/98/98 99/99/99
f 98/98/98 100/100/100 99/99/99
f 101/101/101 102/102/102 103/103/103
f 102/102/102 104/104/104 103/103/103
f 105/105/105 106/106/106 107/107/107
f 106/106/106 108/108/108 107/107/107

