v -1.318694 -1 0.09312455
v -1.318694 4.064312 0.09312501
v -1.339875 -1 0.1298149
v -1.339875 4.064312 0.1298152
v -1.382244 -1 0.1298149
v -1.382241 4.064312 0.1298152
v -1.403425 -1 0.09312455
v -1.403425 4.064312 0.09312501
v -1.382244 -1 0.05643418
v -1.382241 4.064312 0.05643464
v -1.339875 -1 0.05643418
v -1.339875 4.064312 0.05643464
v -1.318694 -1 0.09312455
v -1.318694 4.064312 0.09312501
v -1.339875 4.064312 0.1298152
v -1.318694 4.064312 0.09312501
v -1.382241 4.064312 0.1298152
v -1.403425 4.064312 0.09312501
v -1.382241 4.064312 0.05643464
v -1.339875 4.064312 0.05643464
v -1.312107 3.877311 0.09312501
v -1.312107 3.95313 0.09312501
v -1.337141 3.877311 0.135732
v -1.337141 3.95313 0.1357321
v -1.384978 3.877311 0.1357321
v -1.384976 3.95313 0.1357326
v -1.410012 3.877311 0.09312501
v -1.410012 3.95313 0.09312592
v -1.409971 3.877311 0.01886292
v -1.409968 3.95313 0.01886292
v -1.31219 3.877311 0.01886292
v -1.31219 3.95313 0.01886292
v -1.312107 3.95313 0.09312501
v -1.31219 3.95313 0.01886292
v -1.410012 3.95313 0.09312592
v -1.409968 3.95313 0.01886292
v -1.337141 3.95313 0.1357321
v -1.384976 3.95313 0.1357326
v -1.409971 3.877311 0.01886292
v -1.31219 3.877311 0.01886292
v -1.410012 3.877311 0.09312501
v -1.312107 3.877311 0.09312501
v -1.384978 3.877311 0.1357321
v -1.337141 3.877311 0.135732
v -1.501621 1.971228 0.01092015
v -1.501621 4.002417 0.01092027
v 1.498379 1.971228 0.01092015
v 1.498379 4.002417 0.01092027
v 1.448379 3.952417 0.02008729
v -1.451621 3.952417 0.02008729
v 1.448379 2.021228 0.02008718
v -1.451621 2.021228 0.02008718
v 1.498379 4.002417 0.01092027
v 1.498379 4.002417 0.06092026
v 1.498379 1.971228 0.01092015
v 1.498379 1.971228 0.06092015
v -1.501621 4.002417 0.01092027
v -1.501621 4.002417 0.06092026
v 1.498379 4.002417 0.01092027
v 1.498379 4.002417 0.06092026
v 1.498379 4.002417 0.06092026
v 1.448379 3.952417 0.06092026
v 1.498379 1.971228 0.06092015
v 1.448379 2.021228 0.06092015
v -1.501621 4.002417 0.06092026
v -1.451621 3.952417 0.06092026
v 1.498379 4.002417 0.06092026
v 1.448379 3.952417 0.06092026
v 1.448379 3.952417 0.06092026
v 1.448379 3.952417 0.02008729
v 1.448379 2.021228 0.06092015
v 1.448379 2.021228 0.02008718
v -1.451621 3.952417 0.06092026
v -1.451621 3.952417 0.02008729
v 1.448379 3.952417 0.06092026
v 1.448379 3.952417 0.02008729
v 1.498379 1.971228 0.01092015
v 1.498379 1.971228 0.06092015
v -1.501621 1.971228 0.01092015
v -1.501621 1.971228 0.06092015
v -1.501621 1.971228 0.01092015
v -1.501621 1.971228 0.06092015
v -1.501621 4.002417 0.01092027
v -1.501621 4.002417 0.06092026
v 1.498379 1.971228 0.06092015
v 1.448379 2.021228 0.06092015
v -1.501621 1.971228 0.06092015
v -1.451621 2.021228 0.06092015
v -1.501621 1.971228 0.06092015
v -1.451621 2.021228 0.06092015
v -1.501621 4.002417 0.06092026
v -1.451621 3.952417 0.06092026
v 1.448379 2.021228 0.06092015
v 1.448379 2.021228 0.02008718
v -1.451621 2.021228 0.06092015
v -1.451621 2.021228 0.02008718
v -1.451621 2.021228 0.06092015
v -1.451621 2.021228 0.02008718
v -1.451621 3.952417 0.06092026
v -1.451621 3.952417 0.02008729
v -0.7630249 3.959226 0.05409806
v -0.7630249 2.017271 0.05409787
v -0.7541455 3.959226 0.01942231
v -0.7541455 2.017271 0.01942208
v -0.7719067 3.959226 0.01942231
v -0.7719067 2.017271 0.01942208
v -0.7630249 3.959226 0.05409806
v -0.7630249 2.017271 0.05409787
v 0.7534961 3.959225 0.05409791
v 0.7534961 2.017271 0.05409772
v 0.7623779 3.959225 0.01942216
v 0.7623779 2.017271 0.01942193
v 0.7446142 3.959225 0.01942216
v 0.7446167 2.017271 0.01942193
v 0.7534961 3.959225 0.05409791
v 0.7534961 2.017271 0.05409772
v -0.001540527 3.959226 0.05409791
v -0.001540527 2.017271 0.05409779
v 0.007341309 3.959226 0.01942216
v 0.007341309 2.017271 0.01942204
v -0.01041992 3.959226 0.01942216
v -0.01041992 2.017271 0.01942204
v -0.001540527 3.959226 0.05409791
v -0.001540527 2.017271 0.05409779
v 1.458267 2.600473 0.0540976
v -1.461511 2.600473 0.05409806
v 1.458267 2.589999 0.01942185
v -1.461511 2.589999 0.01942231
v 1.458267 2.610948 0.01942185
v -1.461511 2.610948 0.01942231
v 1.458267 2.600473 0.0540976
v -1.461511 2.600473 0.05409806
v 1.458267 3.297951 0.0540976
v -1.461511 3.297951 0.05409806
v 1.458267 3.287477 0.01942185
v -1.461511 3.287477 0.01942231
v 1.458267 3.308425 0.01942185
v -1.461511 3.308425 0.01942231
v 1.458267 3.297951 0.0540976
v -1.461511 3.297951 0.05409806
v 1.308865 2.020247 0.09312478
v 1.333899 2.020247 0.1357319
v 1.308862 2.096066 0.09312478
v 1.333896 2.096066 0.1357319
v 1.381736 2.020247 0.1357319
v 1.381733 2.096066 0.1357324
v 1.406767 2.020247 0.09312478
v 1.406767 2.096066 0.09312569
v 1.406729 2.020247 0.01886277
v 1.406726 2.096066 0.01886273
v 1.308945 2.020247 0.01886281
v 1.308945 2.096066 0.01886277
v 1.308862 2.096066 0.09312478
v 1.406767 2.096066 0.09312569
v 1.308945 2.096066 0.01886277
v 1.406726 2.096066 0.01886273
v 1.333896 2.096066 0.1357319
v 1.381733 2.096066 0.1357324
v 1.406729 2.020247 0.01886277
v 1.406767 2.020247 0.09312478
v 1.308945 2.020247 0.01886281
v 1.308865 2.020247 0.09312478
v 1.381736 2.020247 0.1357319
v 1.333899 2.020247 0.1357319
v 1.308865 3.877311 0.09312501
v 1.333899 3.877311 0.1357321
v 1.308862 3.95313 0.09312501
v 1.333896 3.95313 0.1357321
v 1.381736 3.877311 0.1357321
v 1.381733 3.95313 0.1357326
v 1.406767 3.877311 0.09312501
v 1.406767 3.95313 0.09312592
v 1.406729 3.877311 0.01886292
v 1.406726 3.95313 0.01886292
v 1.308945 3.877311 0.01886292
v 1.308945 3.95313 0.01886292
v 1.308862 3.95313 0.09312501
v 1.406767 3.95313 0.09312592
v 1.308945 3.95313 0.01886292
v 1.406726 3.95313 0.01886292
v 1.333896 3.95313 0.1357321
v 1.381733 3.95313 0.1357326
v 1.406729 3.877311 0.01886292
v 1.406767 3.877311 0.09312501
v 1.308945 3.877311 0.01886292
v 1.308865 3.877311 0.09312501
v 1.381736 3.877311 0.1357321
v 1.333899 3.877311 0.1357321
v -1.312107 2.020247 0.09312478
v -1.312107 2.096066 0.09312478
v -1.337141 2.020247 0.1357319
v -1.337141 2.096066 0.1357319
v -1.384978 2.020247 0.1357319
v -1.384976 2.096066 0.1357324
v -1.410012 2.020247 0.09312478
v -1.410012 2.096066 0.09312569
v -1.409971 2.020247 0.01886277
v -1.409968 2.096066 0.01886273
v -1.31219 2.020247 0.01886281
v -1.31219 2.096066 0.01886277
v -1.312107 2.096066 0.09312478
v -1.31219 2.096066 0.01886277
v -1.410012 2.096066 0.09312569
v -1.409968 2.096066 0.01886273
v -1.337141 2.096066 0.1357319
v -1.384976 2.096066 0.1357324
v -1.409971 2.020247 0.01886277
v -1.31219 2.020247 0.01886281
v -1.410012 2.020247 0.09312478
v -1.312107 2.020247 0.09312478
v -1.384978 2.020247 0.1357319
v -1.337141 2.020247 0.1357319
v 1.315452 -1 0.09312455
v 1.336633 -1 0.1298149
v 1.315452 4.064312 0.09312501
v 1.336633 4.064312 0.1298152
v 1.379001 -1 0.1298149
v 1.378999 4.064312 0.1298152
v 1.400183 -1 0.09312455
v 1.400183 4.064312 0.09312501
v 1.379001 -1 0.05643418
v 1.378999 4.064312 0.05643464
v 1.336633 -1 0.05643418
v 1.336633 4.064312 0.05643464
v 1.315452 -1 0.09312455
v 1.315452 4.064312 0.09312501
v 1.336633 4.064312 0.05643464
v 1.315452 4.064312 0.09312501
v 1.378999 4.064312 0.05643464
v 1.400183 4.064312 0.09312501
v 1.378999 4.064312 0.1298152
v 1.336633 4.064312 0.1298152
vn 0.9804987 0 -0.1875057
vn 0.9804987 0 0.1875057
vn 0.6533403 0 0.7539293
vn 0.3261818 0 0.941435
vn -0.3261818 0 0.941435
vn -0.6533403 0 0.7539293
vn -0.9804987 0 0.1875057
vn -0.9804987 0 -0.1875057
vn -0.6533403 0 -0.7539293
vn -0.3261818 0 -0.941435
vn 0.3261818 0 -0.941435
vn 0.6533403 0 -0.7539293
vn 0.9804987 0 -0.1875057
vn 0.9804987 0 0.1875057
vn 0 0.999054 0
vn 0 0.999054 0
vn 0 0.999054 0
vn 0 0.999054 0
vn 0 0.999054 0
vn 0 0.999054 0
vn 0.9834285 0 0.1718802
vn 0.9355754 0 0.3457137
vn 0.6494339 0 0.7578356
vn 0.3242286 0 0.9433882
vn -0.3242286 0 0.9433882
vn -0.6494339 0 0.7578356
vn -0.9355754 0 0.3476669
vn -0.9834285 0 0.1718802
vn -0.9980773 0 0
vn -0.9980773 0 0
vn 0.9980773 0 0
vn 0.9980773 0 0
vn 0 0.999054 0
vn 0 0.999054 0
vn 0 0.999054 0
vn 0 0.999054 0
vn 0 0.999054 0
vn 0 0.999054 0
vn 0 -0.999054 0
vn 0 -0.999054 0
vn 0 -0.999054 0
vn 0 -0.999054 0
vn 0 -0.999054 0
vn 0 -0.999054 0
vn 0 0 -0.9980773
vn 0 0 -0.9980773
vn 0 0 -0.9980773
vn 0 0 -0.9980773
vn 0 0 0.9980773
vn 0 0 0.9980773
vn 0 0 0.9980773
vn 0 0 0.9980773
vn 0.999054 0 0
vn 0.999054 0 0
vn 0.999054 0 0
vn 0.999054 0 0
vn 0 0.999054 0
vn 0 0.999054 0
vn 0 0.999054 0
vn 0 0.999054 0
vn 0 0 0.9980773
vn 0 0 0.9980773
vn 0 0 0.9980773
vn 0 0 0.9980773
vn 0 0 0.9980773
vn 0 0 0.9980773
vn 0 0 0.9980773
vn 0 0 0.9980773
vn -0.999054 0 0
vn -0.999054 0 0
vn -0.999054 0 0
vn -0.999054 0 0
vn 0 -0.999054 0
vn 0 -0.999054 0
vn 0 -0.999054 0
vn 0 -0.999054 0
vn 0 -0.999054 0
vn 0 -0.999054 0
vn 0 -0.999054 0
vn 0 -0.999054 0
vn -0.999054 0 0
vn -0.999054 0 0
vn -0.999054 0 0
vn -0.999054 0 0
vn 0 0 0.9980773
vn 0 0 0.9980773
vn 0 0 0.9980773
vn 0 0 0.9980773
vn 0 0 0.9980773
vn 0 0 0.9980773
vn 0 0 0.9980773
vn 0 0 0.9980773
vn 0 0.999054 0
vn 0 0.999054 0
vn 0 0.999054 0
vn 0 0.999054 0
vn 0.999054 0 0
vn 0.999054 0 0
vn 0.999054 0 0
vn 0.999054 0 0
vn 0.967803 0 0.2461013
vn 0.967803 0 0.2461013
vn 0.967803 0 0.2461013
vn 0.967803 0 0.2461013
vn -0.967803 0 0.2461013
vn -0.967803 0 0.2461013
vn -0.967803 0 0.2461013
vn -0.967803 0 0.2461013
vn 0.967803 0 0.2461013
vn 0.967803 0 0.2461013
vn 0.967803 0 0.2461013
vn 0.967803 0 0.2461013
vn -0.967803 0 0.2461013
vn -0.967803 0 0.2461013
vn -0.967803 0 0.2461013
vn -0.967803 0 0.2461013
vn 0.967803 0 0.2461013
vn 0.967803 0 0.2461013
vn 0.967803 0 0.2461013
vn 0.967803 0 0.2461013
vn -0.967803 0 0.2461013
vn -0.967803 0 0.2461013
vn -0.967803 0 0.2461013
vn -0.967803 0 0.2461013
vn 0 -0.9560839 0.2871181
vn 0 -0.9560839 0.2871181
vn 0 -0.9560839 0.2871181
vn 0 -0.9560839 0.2871181
vn 0 0.9560839 0.2871181
vn 0 0.9560839 0.2871181
vn 0 0.9560839 0.2871181
vn 0 0.9560839 0.2871181
vn 0 -0.9560839 0.2871181
vn 0 -0.9560839 0.2871181
vn 0 -0.9560839 0.2871181
vn 0 -0.9560839 0.2871181
vn 0 0.9560839 0.2871181
vn 0 0.9560839 0.2871181
vn 0 0.9560839 0.2871181
vn 0 0.9560839 0.2871181
vn -0.9834285 0 0.1718802
vn -0.6494339 0 0.7578356
vn -0.9355754 0 0.3457137
vn -0.3242286 0 0.9433882
vn 0.3242286 0 0.9433882
vn 0.6494339 0 0.7578356
vn 0.9355754 0 0.3476669
vn 0.9834285 0 0.1718802
vn 0.9980773 0 0
vn 0.9980773 0 0
vn -0.9980773 0 0
vn -0.9980773 0 0
vn 0 0.999054 0
vn 0 0.999054 0
vn 0 0.999054 0
vn 0 0.999054 0
vn 0 0.999054 0
vn 0 0.999054 0
vn 0 -0.999054 0
vn 0 -0.999054 0
vn 0 -0.999054 0
vn 0 -0.999054 0
vn 0 -0.999054 0
vn 0 -0.999054 0
vn -0.9834285 0 0.1718802
vn -0.6494339 0 0.7578356
vn -0.9355754 0 0.3457137
vn -0.3242286 0 0.9433882
vn 0.3242286 0 0.9433882
vn 0.6494339 0 0.7578356
vn 0.9355754 0 0.3476669
vn 0.9834285 0 0.1718802
vn 0.9980773 0 0
vn 0.9980773 0 0
vn -0.9980773 0 0
vn -0.9980773 0 0
vn 0 0.999054 0
vn 0 0.999054 0
vn 0 0.999054 0
vn 0 0.999054 0
vn 0 0.999054 0
vn 0 0.999054 0
vn 0 -0.999054 0
vn 0 -0.999054 0
vn 0 -0.999054 0
vn 0 -0.999054 0
vn 0 -0.999054 0
vn 0 -0.999054 0
vn 0.9834285 0 0.1718802
vn 0.9355754 0 0.3457137
vn 0.6494339 0 0.7578356
vn 0.3242286 0 0.9433882
vn -0.3242286 0 0.9433882
vn -0.6494339 0 0.7578356
vn -0.9355754 0 0.3476669
vn -0.9834285 0 0.1718802
vn -0.9980773 0 0
vn -0.9980773 0 0
vn 0.9980773 0 0
vn 0.9980773 0 0
vn 0 0.999054 0
vn 0 0.999054 0
vn 0 0.999054 0
vn 0 0.999054 0
vn 0 0.999054 0
vn 0 0.999054 0
vn 0 -0.999054 0
vn 0 -0.999054 0
vn 0 -0.999054 0
vn 0 -0.999054 0
vn 0 -0.999054 0
vn 0 -0.999054 0
vn -0.9804987 0 -0.1875057
vn -0.6533403 0 0.7539293
vn -0.9804987 0 0.1875057
vn -0.3261818 0 0.941435
vn 0.3261818 0 0.941435
vn 0.6533403 0 0.7539293
vn 0.9804987 0 0.1875057
vn 0.9804987 0 -0.1875057
vn 0.6533403 0 -0.7539293
vn 0.3261818 0 -0.941435
vn -0.3261818 0 -0.941435
vn -0.6533403 0 -0.7539293
vn -0.9804987 0 -0.1875057
vn -0.9804987 0 0.1875057
vn 0 0.999054 0
vn 0 0.999054 0
vn 0 0.999054 0
vn 0 0.999054 0
vn 0 0.999054 0
vn 0 0.999054 0
vt 0.1570315 0.02382338
vt 0.4851359 0.02382338
vt 0.1570315 0.02099836
vt 0.4851359 0.02099836
vt 0.1570315 0.01817334
vt 0.4851359 0.01817334
vt 0.1570315 0.0153482
vt 0.4851359 0.01534832
vt 0.1570315 0.01252329
vt 0.4851359 0.01252329
vt 0.1570315 0.009698153
vt 0.4851359 0.009698153
vt 0.1570315 0.00687325
vt 0.4851359 0.00687325
vt 0.4208333 0.08553922
vt 0.41911 0.08852386
vt 0.4242798 0.08553922
vt 0.4260032 0.08852386
vt 0.4242798 0.09150863
vt 0.4208333 0.09150863
vt 0.3911155 0.1540736
vt 0.3911155 0.1479057
vt 0.3876494 0.1540736
vt 0.3876494 0.1479057
vt 0.3837579 0.1540736
vt 0.3837579 0.1479057
vt 0.3802916 0.1540736
vt 0.3802918 0.1479057
vt 0.3742505 0.1540736
vt 0.3742505 0.1479057
vt 0.3971566 0.1540736
vt 0.3971566 0.1479057
vt 0.3817573 0.1575944
vt 0.381764 0.1636355
vt 0.3897219 0.1575942
vt 0.3897185 0.1636355
vt 0.3837938 0.1541281
vt 0.3876853 0.1541281
vt 0.3817245 0.163581
vt 0.3896793 0.163581
vt 0.3817214 0.1575397
vt 0.389686 0.1575397
vt 0.3837579 0.1540736
vt 0.3876494 0.1540736
vt 0.1566361 0.1699997
vt 0.1566362 0.3354491
vt 0.4009936 0.1699997
vt 0.4009936 0.335449
vt 0.1568853 0.167142
vt 0.3059618 0.167142
vt 0.1568852 0.06786776
vt 0.3059617 0.06786788
vt 0.3434556 0.06459439
vt 0.3434556 0.06052673
vt 0.1928394 0.06459439
vt 0.1928394 0.06052673
vt 0.3794326 0.06458783
vt 0.3794326 0.06052029
vt 0.1569771 0.06458783
vt 0.1569772 0.06052029
vt 0.3434556 0.06052673
vt 0.3397482 0.05645919
vt 0.1928394 0.06052673
vt 0.1965471 0.05645919
vt 0.3794326 0.06052029
vt 0.375725 0.05645287
vt 0.1569772 0.06052029
vt 0.1606848 0.05645263
vt 0.3397482 0.05645919
vt 0.3397482 0.05313742
vt 0.1965471 0.05645919
vt 0.1965471 0.05313742
vt 0.375725 0.05645287
vt 0.375725 0.05313098
vt 0.1606848 0.05645263
vt 0.1606848 0.05313098
vt 0.3794326 0.06462479
vt 0.3794325 0.06055713
vt 0.1569771 0.06462467
vt 0.1569771 0.06055725
vt 0.3434556 0.06458986
vt 0.3434556 0.06052244
vt 0.1928394 0.06458986
vt 0.1928394 0.06052244
vt 0.3794325 0.06055713
vt 0.3757249 0.05648983
vt 0.1569771 0.06055725
vt 0.1606848 0.05648983
vt 0.3434556 0.06052244
vt 0.3397482 0.05645478
vt 0.1928394 0.06052244
vt 0.1965471 0.05645478
vt 0.3757249 0.05648983
vt 0.375725 0.05316806
vt 0.1606848 0.05648983
vt 0.1606848 0.05316806
vt 0.3397482 0.05645478
vt 0.3397482 0.05313289
vt 0.1965471 0.05645478
vt 0.1965471 0.05313301
vt 0.3351364 0.04800045
vt 0.191137 0.04800045
vt 0.3351364 0.05082142
vt 0.191137 0.05082142
vt 0.3351364 0.04517961
vt 0.191137 0.04517961
vt 0.3351364 0.04800045
vt 0.191137 0.04800045
vt 0.3351363 0.04800045
vt 0.191137 0.04800045
vt 0.3351363 0.05082142
vt 0.191137 0.05082142
vt 0.3351363 0.04517961
vt 0.191137 0.04517961
vt 0.3351363 0.04800045
vt 0.191137 0.04800045
vt 0.3351364 0.04800045
vt 0.191137 0.04800045
vt 0.3351364 0.05082142
vt 0.191137 0.05082142
vt 0.3351364 0.04517961
vt 0.191137 0.04517961
vt 0.3351364 0.04800045
vt 0.191137 0.04800045
vt 0.1570323 0.04800045
vt 0.3735391 0.04800045
vt 0.1570323 0.04517961
vt 0.3735391 0.04517961
vt 0.1570323 0.05087399
vt 0.3735391 0.05087399
vt 0.1570323 0.04800045
vt 0.3735391 0.04800045
vt 0.3735391 0.04800045
vt 0.1570323 0.04800045
vt 0.3735391 0.04517961
vt 0.1570323 0.04517961
vt 0.3735391 0.05087388
vt 0.1570323 0.05087388
vt 0.3735391 0.04800045
vt 0.1570323 0.04800045
vt 0.3803311 0.154101
vt 0.3837971 0.154101
vt 0.3803311 0.1479331
vt 0.3837971 0.1479331
vt 0.3876886 0.1541011
vt 0.3876886 0.1479332
vt 0.3911549 0.1541011
vt 0.3911549 0.1479332
vt 0.3971961 0.1541011
vt 0.3971961 0.1479332
vt 0.3742898 0.154101
vt 0.3742898 0.1479331
vt 0.3896826 0.1575671
vt 0.381718 0.1575667
vt 0.3896756 0.1636081
vt 0.3817212 0.163608
vt 0.3876461 0.1541007
vt 0.3837546 0.1541005
vt 0.3897217 0.1636086
vt 0.3897251 0.1575674
vt 0.3817671 0.1636084
vt 0.3817605 0.1575671
vt 0.3876886 0.1541011
vt 0.3837971 0.154101
vt 0.3802883 0.1540736
vt 0.3837545 0.1540736
vt 0.3802883 0.1479057
vt 0.3837545 0.1479057
vt 0.3876459 0.1540737
vt 0.3876459 0.1479057
vt 0.3911122 0.1540737
vt 0.3911122 0.1479057
vt 0.3971536 0.1540737
vt 0.3971536 0.1479057
vt 0.3742472 0.1540736
vt 0.3742472 0.1479057
vt 0.3897253 0.1575944
vt 0.3817606 0.1575941
vt 0.3897184 0.1636356
vt 0.381764 0.1636355
vt 0.3876887 0.1541281
vt 0.3837972 0.1541281
vt 0.3896793 0.163581
vt 0.3896826 0.1575397
vt 0.3817245 0.163581
vt 0.3817179 0.1575397
vt 0.3876459 0.1540737
vt 0.3837545 0.1540736
vt 0.3911156 0.1540736
vt 0.3911156 0.1479057
vt 0.3876495 0.1540736
vt 0.3876495 0.1479057
vt 0.383758 0.1540736
vt 0.383758 0.1479057
vt 0.3802918 0.1540736
vt 0.3802919 0.1479057
vt 0.3742506 0.1540736
vt 0.3742506 0.1479057
vt 0.3971568 0.1540736
vt 0.3971568 0.1479057
vt 0.3817572 0.1575944
vt 0.381764 0.1636355
vt 0.3897218 0.1575941
vt 0.3897184 0.1636355
vt 0.3837937 0.1541281
vt 0.3876851 0.1541281
vt 0.3817249 0.163581
vt 0.3896795 0.1635809
vt 0.3817215 0.1575397
vt 0.3896861 0.1575397
vt 0.383758 0.1540736
vt 0.3876495 0.1540736
vt 0.1570315 0.02382338
vt 0.1570315 0.02099836
vt 0.4851359 0.02382338
vt 0.4851359 0.02099836
vt 0.1570315 0.01817334
vt 0.4851359 0.01817334
vt 0.1570315 0.0153482
vt 0.4851359 0.01534832
vt 0.1570315 0.01252329
vt 0.4851359 0.01252329
vt 0.1570315 0.009698153
vt 0.4851359 0.009698153
vt 0.1570315 0.00687325
vt 0.4851359 0.00687325
vt 0.4208333 0.09150863
vt 0.41911 0.08852386
vt 0.4242798 0.09150863
vt 0.4260032 0.08852386
vt 0.4242798 0.08553922
vt 0.4208333 0.08553922

g 0000000000
f 1/1/1 2/2/2 3/3/3
f 2/2/2 4/4/4 3/3/3
f 3/3/3 4/4/4 5/5/5
f 4/4/4 6/6/6 5/5/5
f 5/5/5 6/6/6 7/7/7
f 6/6/6 8/8/8 7/7/7
f 7/7/7 8/8/8 9/9/9
f 8/8/8 10/10/10 9/9/9
f 9/9/9 10/10/10 11/11/11
f 10/10/10 12/12/12 11/11/11
f 11/11/11 12/12/12 13/13/13
f 12/12/12 14/14/14 13/13/13
f 15/15/15 16/16/16 17/17/17
f 17/17/17 16/16/16 18/18/18
f 18/18/18 16/16/16 19/19/19
f 16/16/16 20/20/20 19/19/19
f 21/21/21 22/22/22 23/23/23
f 22/22/22 24/24/24 23/23/23
f 23/23/23 24/24/24 25/25/25
f 24/24/24 26/26/26 25/25/25
f 25/25/25 26/26/26 27/27/27
f 26/26/26 28/28/28 27/27/27
f 27/27/27 28/28/28 29/29/29
f 28/28/28 30/30/30 29/29/29
f 31/31/31 32/32/32 21/21/21
f 32/32/32 22/22/22 21/21/21
f 33/33/33 34/34/34 35/35/35
f 34/34/34 36/36/36 35/35/35
f 33/33/33 35/35/35 37/37/37
f 35/35/35 38/38/38 37/37/37
f 39/39/39 40/40/40 41/41/41
f 40/40/40 42/42/42 41/41/41
f 41/41/41 42/42/42 43/43/43
f 42/42/42 44/44/44 43/43/43
f 45/45/45 46/46/46 47/47/47
f 46/46/46 48/48/48 47/47/47
f 49/49/49 50/50/50 51/51/51
f 50/50/50 52/52/52 51/51/51
f 53/53/53 54/54/54 55/55/55
f 54/54/54 56/56/56 55/55/55
f 57/57/57 58/58/58 59/59/59
f 58/58/58 60/60/60 59/59/59
f 61/61/61 62/62/62 63/63/63
f 62/62/62 64/64/64 63/63/63
f 65/65/65 66/66/66 67/67/67
f 66/66/66 68/68/68 67/67/67
f 69/69/69 70/70/70 71/71/71
f 70/70/70 72/72/72 71/71/71
f 73/73/73 74/74/74 75/75/75
f 74/74/74 76/76/76 75/75/75
f 77/77/77 78/78/78 79/79/79
f 78/78/78 80/80/80 79/79/79
f 81/81/81 82/82/82 83/83/83
f 82/82/82 84/84/84 83/83/83
f 85/85/85 86/86/86 87/87/87
f 86/86/86 88/88/88 87/87/87
f 89/89/89 90/90/90 91/91/91
f 90/90/90 92/92/92 91/91/91
f 93/93/93 94/94/94 95/95/95
f 94/94/94 96/96/96 95/95/95
f 97/97/97 98/98/98 99/99/99
f 98/98/98 100/100/100 99/99/99
f 101/101/101 102/102/102 103/103/103
f 102/102/102 104/104/104 103/103/103
f 105/105/105 106/106/106 107/107/107
f 106/106/106 108/108/108 107/107/107
f 109/109/109 110/110/110 111/111/111
f 110/110/110 112/112/112 111/111/111
f 113/113/113 114/114/114 115/115/115
f 114/114/114 116/116/116 115/115/115
f 117/117/117 118/118/118 119/119/119
f 118/118/118 120/120/120 119/119/119
f 121/121/121 122/122/122 123/123/123
f 122/122/122 124/124/124 123/123/123
f 125/125/125 126/126/126 127/127/127
f 126/126/126 128/128/128 127/127/127
f 129/129/129 130/130/130 131/131/131
f 130/130/130 132/132/132 131/131/131
f 133/133/133 134/134/134 135/135/135
f 134/134/134 136/136/136 135/135/135
f 137/137/137 138/138/138 139/139/139
f 138/138/138 140/140/140 139/139/139
f 141/141/141 142/142/142 143/143/143
f 142/142/142 144/144/144 143/143/143
f 142/142/142 145/145/145 144/144/144
f 145/145/145 146/146/146 144/144/144
f 145/145/145 147/147/147 146/146/146
f 147/147/147 148/148/148 146/146/146
f 147/147/147 149/149/149 148/148/148
f 149/149/149 150/150/150 148/148/148
f 151/151/151 141/141/141 152/152/152
f 141/141/141 143/143/143 152/152/152
f 153/153/153 154/154/154 155/155/155
f 154/154/154 156/156/156 155/155/155
f 153/153/153 157/157/157 154/154/154
f 157/157/157 158/158/158 154/154/154
f 159/159/159 160/160/160 161/161/161
f 160/160/160 162/162/162 161/161/161
f 160/160/160 163/163/163 162/162/162
f 163/163/163 164/164/164 162/162/162
f 165/165/165 166/166/166 167/167/167
f 166/166/166 168/168/168 167/167/167
f 166/166/166 169/169/169 168/168/168
f 169/169/169 170/170/170 168/168/168
f 169/169/169 171/171/171 170/170/170
f 171/171/171 172/172/172 170/170/170
f 171/171/171 173/173/173 172/172/172
f 173/173/173 174/174/174 172/172/172
f 175/175/175 165/165/165 176/176/176
f 165/165/165 167/167/167 176/176/176
f 177/177/177 178/178/178 179/179/179
f 178/178/178 180/180/180 179/179/179
f 177/177/177 181/181/181 178/178/178
f 181/181/181 182/182/182 178/178/178
f 183/183/183 184/184/184 185/185/185
f 184/184/184 186/186/186 185/185/185
f 184/184/184 187/187/187 186/186/186
f 187/187/187 188/188/188 186/186/186
f 189/189/189 190/190/190 191/191/191
f 190/190/190 192/192/192 191/191/191
f 191/191/191 192/192/192 193/193/193
f 192/192/192 194/194/194 193/193/193
f 193/193/193 194/194/194 195/195/195
f 194/194/194 196/196/196 195/195/195
f 195/195/195 196/196/196 197/197/197
f 196/196/196 198/198/198 197/197/197
f 199/199/199 200/200/200 189/189/189
f 200/200/200 190/190/190 189/189/189
f 201/201/201 202/202/202 203/203/203
f 202/202/202 204/204/204 203/203/203
f 201/201/201 203/203/203 205/205/205
f 203/203/203 206/206/206 205/205/205
f 207/207/207 208/208/208 209/209/209
f 208/208/208 210/210/210 209/209/209
f 209/209/209 210/210/210 211/211/211
f 210/210/210 212/212/212 211/211/211
f 213/213/213 214/214/214 215/215/215
f 214/214/214 216/216/216 215/215/215
f 214/214/214 217/217/217 216/216/216
f 217/217/217 218/218/218 216/216/216
f 217/217/217 219/219/219 218/218/218
f 219/219/219 220/220/220 218/218/218
f 219/219/219 221/221/221 220/220/220
f 221/221/221 222/222/222 220/220/220
f 221/221/221 223/223/223 222/222/222
f 223/223/223 224/224/224 222/222/222
f 223/223/223 225/225/225 224/224/224
f 225/225/225 226/226/226 224/224/224
f 227/227/227 228/228/228 229/229/229
f 229/229/229 228/228/228 230/230/230
f 230/230/230 228/228/228 231/231/231
f 228/228/228 232/232/232 231/231/231

