v -0.4809424 3.654958 -0.03994964
v 0.4740747 3.654958 -0.03994964
v -0.4809424 2.654958 -0.0399498
v 0.4740747 2.654958 -0.0399498
v 0.4740747 3.654958 -0.02912948
v -0.4809424 3.654958 -0.02912948
v 0.4740747 2.654958 -0.02912964
v -0.4809424 2.654958 -0.02912964
v -0.4809424 2.654958 -0.0399498
v -0.4809424 2.654958 -0.02912964
v -0.4809424 3.654958 -0.03994964
v -0.4809424 3.654958 -0.02912948
v -0.4809424 3.654958 -0.03994964
v -0.4809424 3.654958 -0.02912948
v 0.4740747 3.654958 -0.03994964
v 0.4740747 3.654958 -0.02912948
v 0.4740747 3.654958 -0.03994964
v 0.4740747 3.654958 -0.02912948
v 0.4740747 2.654958 -0.0399498
v 0.4740747 2.654958 -0.02912964
v 0.4740747 2.654958 -0.0399498
v 0.4740747 2.654958 -0.02912964
v -0.4809424 2.654958 -0.0399498
v -0.4809424 2.654958 -0.02912964
v -0.03594482 -0.9999995 1.403809E-05
v -0.01919922 -1 0.0290181
v -0.03594482 3.557127 1.525879E-05
v -0.01919922 3.557127 0.02901947
v -0.01919922 -1 0.0290181
v 0.01429199 -1 0.0290181
v -0.01919922 3.557127 0.02901947
v 0.01429199 3.557127 0.02901947
v 0.0310376 -0.9999995 1.403809E-05
v 0.0310376 3.557127 1.525879E-05
v 0.01429199 -0.9999995 -0.02899017
v 0.01429199 3.557127 -0.0289888
v -0.01919922 -0.9999995 -0.02899017
v -0.01919922 3.557127 -0.0289888
v -0.03594482 3.557127 1.525879E-05
v -0.01919922 3.557127 0.02901947
v -0.01919922 3.557127 -0.0289888
v 0.01429199 3.557127 -0.0289888
v 0.0310376 3.557127 1.525879E-05
v 0.01429199 3.557127 0.02901947
vn 0 0 -0.9980773
vn 0 0 -0.9980773
vn 0 0 -0.9980773
vn 0 0 -0.9980773
vn 0 0 0.9980773
vn 0 0 0.9980773
vn 0 0 0.9980773
vn 0 0 0.9980773
vn -0.999054 0 0
vn -0.999054 0 0
vn -0.999054 0 0
vn -0.999054 0 0
vn 0 0.999054 0
vn 0 0.999054 0
vn 0 0.999054 0
vn 0 0.999054 0
vn 0.999054 0 0
vn 0.999054 0 0
vn 0.999054 0 0
vn 0.999054 0 0
vn 0 -0.999054 0
vn 0 -0.999054 0
vn 0 -0.999054 0
vn 0 -0.999054 0
vn -0.9804987 0 -0.1875057
vn -0.6533403 0 0.7539293
vn -0.9804987 0 0.1875057
vn -0.3261818 0 0.941435
vn -0.6533403 0 0.7539293
vn 0.3261818 0 0.941435
vn -0.3261818 0 0.941435
vn 0.6533403 0 0.7539293
vn 0.9804987 0 0.1875057
vn 0.9804987 0 -0.1875057
vn 0.6533403 0 -0.7539293
vn 0.3261818 0 -0.941435
vn -0.3261818 0 -0.941435
vn -0.6533403 0 -0.7539293
vn 0 0.999054 0
vn 0 0.999054 0
vn 0 0.999054 0
vn 0 0.999054 0
vn 0 0.999054 0
vn 0 0.999054 0
vt 0.4030247 0.2576516
vt 0.4030248 0.3353428
vt 0.4843751 0.2576516
vt 0.4843752 0.3353428
vt 0.4850425 0.09354174
vt 0.4850425 0.04444849
vt 0.4336369 0.09354174
vt 0.4336369 0.04444849
vt 0.3896206 0.08505142
vt 0.3896206 0.0831641
vt 0.3082701 0.08505201
vt 0.3082701 0.08316422
vt 0.3873121 0.08498013
vt 0.3873121 0.08309221
vt 0.309621 0.08498037
vt 0.309621 0.08309221
vt 0.3896159 0.08505142
vt 0.3896159 0.08316386
vt 0.3082654 0.08505177
vt 0.3082654 0.08316422
vt 0.3873169 0.08498013
vt 0.3873169 0.08309221
vt 0.3096259 0.08498037
vt 0.3096259 0.08309221
vt 0.1568267 0.03886068
vt 0.1568267 0.0413028
vt 0.4855459 0.0388608
vt 0.485546 0.04130304
vt 0.1568267 0.02665067
vt 0.1568267 0.02909279
vt 0.4855459 0.02665067
vt 0.4855459 0.02909279
vt 0.1568267 0.03153479
vt 0.4855459 0.03153479
vt 0.1568267 0.03397691
vt 0.4855459 0.03397691
vt 0.1568267 0.0364188
vt 0.4855459 0.03641891
vt 0.4284798 0.07614732
vt 0.4271176 0.07378781
vt 0.4271176 0.07850671
vt 0.4243931 0.07850671
vt 0.4230307 0.07614732
vt 0.4243931 0.07378781

g 0000000000
f 1/1/1 2/2/2 3/3/3
f 2/2/2 4/4/4 3/3/3
f 5/5/5 6/6/6 7/7/7
f 6/6/6 8/8/8 7/7/7
f 9/9/9 10/10/10 11/11/11
f 10/10/10 12/12/12 11/11/11
f 13/13/13 14/14/14 15/15/15
f 14/14/14 16/16/16 15/15/15
f 17/17/17 18/18/18 19/19/19
f 18/18/18 20/20/20 19/19/19
f 21/21/21 22/22/22 23/23/23
f 22/22/22 24/24/24 23/23/23
f 25/25/25 26/26/26 27/27/27
f 26/26/26 28/28/28 27/27/27
f 29/29/29 30/30/30 31/31/31
f 30/30/30 32/32/32 31/31/31
f 30/30/30 33/33/33 32/32/32
f 33/33/33 34/34/34 32/32/32
f 33/33/33 35/35/35 34/34/34
f 35/35/35 36/36/36 34/34/34
f 35/35/35 37/37/37 36/36/36
f 37/37/37 38/38/38 36/36/36
f 37/37/37 25/25/25 38/38/38
f 25/25/25 27/27/27 38/38/38
f 39/39/39 40/40/40 41/41/41
f 41/41/41 40/40/40 42/42/42
f 42/42/42 40/40/40 43/43/43
f 43/43/43 40/40/40 44/44/44

