v 1.063132 2.738634 -0.02384141
v 1.063132 2.738634 0.0264503
v 1.063132 1.24491 -0.02384141
v 1.063132 1.24491 0.0264503
v -1.048175 1.24491 -0.02384141
v -1.048175 1.24491 0.0264503
v -1.048175 2.738634 -0.02384141
v -1.048175 2.738634 0.0264503
v -1.048175 2.738634 -0.02384141
v -1.048175 2.738634 0.0264503
v 1.063132 2.738634 -0.02384141
v 1.063132 2.738634 0.0264503
v 1.063132 1.24491 -0.02384141
v -1.048175 1.24491 -0.02384141
v 1.063132 2.738634 -0.02384141
v -1.048175 2.738634 -0.02384141
v 1.063132 1.24491 0.0264503
v -1.048175 1.24491 0.0264503
v 1.063132 1.24491 -0.02384141
v -1.048175 1.24491 -0.02384141
v 1.063132 2.738634 0.0264503
v -1.048175 2.738634 0.0264503
v 1.063132 1.24491 0.0264503
v -1.048175 1.24491 0.0264503
v -0.9681457 0.03866654 0.01058781
v -0.9494983 0.03866654 0.02150523
v -0.9681457 1.252866 0.01058781
v -0.9494983 1.252866 0.02150523
v -0.9494983 0.03866654 -0.02142985
v -0.9681457 0.03866654 -0.01031879
v -0.9494983 1.252866 -0.02142837
v -0.9681457 1.252866 -0.01031731
v -0.9306067 0.03866654 0.01058781
v -0.9306067 0.03866654 -0.01058928
v -0.9306067 1.252866 0.01058781
v -0.9306067 1.252866 -0.01058928
v -0.9306067 1.252866 0.01058781
v -0.9306067 0.03866654 0.01058781
v -1.003861 -0.0202552 0.03066813
v -0.949657 -0.0202552 0.06240346
v -0.9838635 0.04743477 0.01942551
v -0.949569 0.04743515 0.03950436
v -0.949657 -0.0202552 -0.06240198
v -1.003861 -0.0202552 -0.03010201
v -0.949569 0.04743477 -0.03946149
v -0.9838635 0.04743477 -0.01902494
v -0.9148206 0.04743477 0.01942551
v -0.8947375 -0.0202552 0.03066665
v -0.9148206 0.04743477 -0.01952455
v -0.8947375 -0.0202552 -0.0308928
v -0.9148206 0.04743477 0.01942551
v -0.8947375 -0.0202552 0.03066665
v -0.949569 0.04743477 -0.03946149
v -0.9838635 0.04743477 -0.01902494
v -0.9148206 0.04743477 -0.01952455
v -0.9148206 0.04743477 0.01942551
v -0.949569 0.04743515 0.03950436
v -0.9838635 0.04743477 0.01942551
v 0.9589319 0.03866654 0.01058633
v 0.9775793 0.03866654 0.02150376
v 0.9589319 1.252866 0.01058633
v 0.9775793 1.252866 0.02150376
v 0.9775793 0.03866654 -0.02143133
v 0.9589319 0.03866654 -0.01032027
v 0.9775793 1.252866 -0.02142985
v 0.9589319 1.252866 -0.01031879
v 0.9964734 0.03866654 0.01058633
v 0.9964734 0.03866654 -0.01059076
v 0.9964734 1.252866 0.01058633
v 0.9964734 1.252866 -0.01059076
v 0.9964734 1.252866 0.01058633
v 0.9964734 0.03866654 0.01058633
v 0.923219 -0.0202552 0.03066665
v 0.9774231 -0.0202552 0.06240198
v 0.9432141 0.04743477 0.01942403
v 0.977511 0.04743515 0.03950288
v 0.9774231 -0.0202552 -0.06240346
v 0.923219 -0.0202552 -0.03010348
v 0.977511 0.04743477 -0.03946297
v 0.9432141 0.04743477 -0.01902642
v 1.012259 0.04743477 0.01942403
v 1.032343 -0.0202552 0.03066517
v 1.012259 0.04743477 -0.01952603
v 1.032343 -0.0202552 -0.03089428
v 1.012259 0.04743477 0.01942403
v 1.032343 -0.0202552 0.03066517
v 0.977511 0.04743477 -0.03946297
v 0.9432141 0.04743477 -0.01902642
v 1.012259 0.04743477 -0.01952603
v 1.012259 0.04743477 0.01942403
v 0.977511 0.04743515 0.03950288
v 0.9432141 0.04743477 0.01942403
vn 0.999054 0 0
vn 0.999054 0 0
vn 0.999054 0 0
vn 0.999054 0 0
vn -0.999054 0 0
vn -0.999054 0 0
vn -0.999054 0 0
vn -0.999054 0 0
vn 0 0.999054 0
vn 0 0.999054 0
vn 0 0.999054 0
vn 0 0.999054 0
vn 0 0 -0.9980773
vn 0 0 -0.9980773
vn 0 0 -0.9980773
vn 0 0 -0.9980773
vn 0 -0.999054 0
vn 0 -0.999054 0
vn 0 -0.999054 0
vn 0 -0.999054 0
vn 0 0 0.9980773
vn 0 0 0.9980773
vn 0 0 0.9980773
vn 0 0 0.9980773
vn -0.8662374 0 0.4961089
vn -0.001953185 0 0.9961241
vn -0.8662374 0 0.4961089
vn -0.001953185 0 0.9961241
vn -0.007812738 0 -0.9961241
vn -0.8681906 0 -0.4922025
vn -0.007812738 0 -0.9961241
vn -0.8681906 0 -0.4922025
vn 0.8652608 0 0.4980621
vn 0.8642842 0 -0.5000153
vn 0.8652608 0 0.4980621
vn 0.8642842 0 -0.5000153
vn 0.8652608 0 0.4980621
vn 0.8652608 0 0.4980621
vn -0.8203375 0.3203223 0.4687643
vn -0.001953185 0.3193457 0.9453413
vn -0.8203375 0.3203223 0.4687643
vn -0.001953185 0.3193457 0.9453413
vn 0.1728568 0.3154393 -0.9297159
vn -0.8222907 0.3193457 -0.4668111
vn -0.1884823 0.3144627 -0.9277627
vn -0.8222907 0.3193457 -0.4668111
vn 0.7158422 0.3154393 0.6191595
vn 0.8945585 0.3164159 0.3086032
vn 0.8174078 0.3222755 -0.4726707
vn 0.8174078 0.3222755 -0.4726707
vn 0.7158422 0.3154393 0.6191595
vn 0.8945585 0.3164159 0.3086032
vn 0 0.999054 0
vn 0 0.999054 0
vn 0 0.999054 0
vn 0 0.999054 0
vn 0 0.999054 0
vn 0 0.999054 0
vn -0.8662374 0 0.4961089
vn -0.001953185 0 0.9961241
vn -0.8662374 0 0.4961089
vn -0.001953185 0 0.9961241
vn -0.007812738 0 -0.9961241
vn -0.8681906 0 -0.4922025
vn -0.007812738 0 -0.9961241
vn -0.8681906 0 -0.4922025
vn 0.8652608 0 0.4980621
vn 0.8642842 0 -0.5000153
vn 0.8652608 0 0.4980621
vn 0.8642842 0 -0.5000153
vn 0.8652608 0 0.4980621
vn 0.8652608 0 0.4980621
vn -0.8203375 0.3203223 0.4687643
vn -0.001953185 0.3193457 0.9453413
vn -0.8203375 0.3203223 0.4687643
vn -0.001953185 0.3193457 0.9453413
vn 0.1728568 0.3154393 -0.9297159
vn -0.8222907 0.3193457 -0.4668111
vn -0.1884823 0.3144627 -0.9277627
vn -0.8222907 0.3193457 -0.4668111
vn 0.7158422 0.3154393 0.6191595
vn 0.8945585 0.3164159 0.3086032
vn 0.8174078 0.3222755 -0.4726707
vn 0.8174078 0.3222755 -0.4726707
vn 0.7158422 0.3154393 0.6191595
vn 0.8945585 0.3164159 0.3086032
vn 0 0.999054 0
vn 0 0.999054 0
vn 0 0.999054 0
vn 0 0.999054 0
vn 0 0.999054 0
vn 0 0.999054 0
vt 0.2278185 0.3522435
vt 0.2278185 0.3553879
vt 0.2278185 0.3522435
vt 0.2278185 0.3553879
vt 0.06696239 0.3522435
vt 0.06696239 0.3553879
vt 0.06696251 0.3522435
vt 0.06696239 0.3553879
vt 0.06696251 0.3522435
vt 0.06696239 0.3553879
vt 0.1989254 0.3522435
vt 0.1989254 0.355388
vt 0.06694264 0.5686277
vt 0.06694263 0.4815321
vt 0.00530564 0.5686277
vt 0.005305663 0.4815319
vt 0.1989254 0.3553879
vt 0.06696239 0.3553879
vt 0.1989254 0.3522435
vt 0.06696239 0.3522435
vt 0.03253124 0.1753643
vt 0.1485391 0.1753643
vt 0.03253124 0.09326613
vt 0.1485391 0.09326613
vt 0.05372515 0.3437833
vt 0.05372635 0.3454629
vt 0.1485932 0.3437833
vt 0.1485918 0.3454629
vt 0.05372503 0.3404233
vt 0.05372491 0.3421032
vt 0.1485933 0.3404235
vt 0.1485935 0.3421034
vt 0.0537242 0.337064
vt 0.05372468 0.3387437
vt 0.1485939 0.337064
vt 0.1485937 0.3387437
vt 0.1485912 0.3471428
vt 0.05372682 0.3471428
vt 0.2183381 0.3390115
vt 0.2142825 0.3390115
vt 0.2183383 0.3446504
vt 0.2142824 0.3446504
vt 0.2264478 0.3390115
vt 0.2223936 0.3390115
vt 0.2264471 0.3446504
vt 0.2223935 0.3446504
vt 0.2345576 0.3446504
vt 0.234558 0.3390115
vt 0.2305028 0.3446504
vt 0.2305031 0.3390115
vt 0.210227 0.3446504
vt 0.2102268 0.3390115
vt 0.2053695 0.3403842
vt 0.201871 0.3384384
vt 0.2053266 0.3444238
vt 0.201908 0.3464155
vt 0.1984074 0.3444238
vt 0.1984841 0.3403842
vt 0.05372515 0.3437833
vt 0.05372587 0.3454629
vt 0.1485932 0.3437833
vt 0.1485925 0.3454629
vt 0.05372503 0.3404233
vt 0.05372503 0.3421032
vt 0.1485933 0.3404235
vt 0.1485932 0.3421034
vt 0.05372372 0.337064
vt 0.0537242 0.3387437
vt 0.1485945 0.337064
vt 0.1485941 0.3387437
vt 0.148592 0.3471428
vt 0.05372635 0.3471428
vt 0.218338 0.3390115
vt 0.2142825 0.3390115
vt 0.2183383 0.3446504
vt 0.2142823 0.3446504
vt 0.2264478 0.3390115
vt 0.2223936 0.3390115
vt 0.2264471 0.3446504
vt 0.2223935 0.3446504
vt 0.2345577 0.3446504
vt 0.234558 0.3390115
vt 0.2305028 0.3446504
vt 0.2305031 0.3390115
vt 0.210227 0.3446504
vt 0.2102268 0.3390115
vt 0.2053695 0.3403842
vt 0.201871 0.3384384
vt 0.2053265 0.3444238
vt 0.201908 0.3464155
vt 0.1984074 0.3444238
vt 0.1984841 0.3403842

g 0000000000
f 1/1/1 2/2/2 3/3/3
f 2/2/2 4/4/4 3/3/3
f 5/5/5 6/6/6 7/7/7
f 6/6/6 8/8/8 7/7/7
f 9/9/9 10/10/10 11/11/11
f 10/10/10 12/12/12 11/11/11
f 13/13/13 14/14/14 15/15/15
f 14/14/14 16/16/16 15/15/15
f 17/17/17 18/18/18 19/19/19
f 18/18/18 20/20/20 19/19/19
f 21/21/21 22/22/22 23/23/23
f 22/22/22 24/24/24 23/23/23
f 25/25/25 26/26/26 27/27/27
f 26/26/26 28/28/28 27/27/27
f 29/29/29 30/30/30 31/31/31
f 30/30/30 32/32/32 31/31/31
f 33/33/33 34/34/34 35/35/35
f 34/34/34 36/36/36 35/35/35
f 32/32/32 30/30/30 27/27/27
f 30/30/30 25/25/25 27/27/27
f 36/36/36 34/34/34 31/31/31
f 34/34/34 29/29/29 31/31/31
f 28/28/28 26/26/26 37/37/37
f 26/26/26 38/38/38 37/37/37
f 39/39/39 40/40/40 41/41/41
f 40/40/40 42/42/42 41/41/41
f 43/43/43 44/44/44 45/45/45
f 44/44/44 46/46/46 45/45/45
f 47/47/47 48/48/48 49/49/49
f 48/48/48 50/50/50 49/49/49
f 46/46/46 44/44/44 41/41/41
f 44/44/44 39/39/39 41/41/41
f 45/45/45 49/49/49 43/43/43
f 49/49/49 50/50/50 43/43/43
f 42/42/42 40/40/40 51/51/51
f 40/40/40 52/52/52 51/51/51
f 53/53/53 54/54/54 55/55/55
f 55/55/55 54/54/54 56/56/56
f 56/56/56 54/54/54 57/57/57
f 58/58/58 57/57/57 54/54/54
f 59/59/59 60/60/60 61/61/61
f 60/60/60 62/62/62 61/61/61
f 63/63/63 64/64/64 65/65/65
f 64/64/64 66/66/66 65/65/65
f 67/67/67 68/68/68 69/69/69
f 68/68/68 70/70/70 69/69/69
f 66/66/66 64/64/64 61/61/61
f 64/64/64 59/59/59 61/61/61
f 70/70/70 68/68/68 65/65/65
f 68/68/68 63/63/63 65/65/65
f 62/62/62 60/60/60 71/71/71
f 60/60/60 72/72/72 71/71/71
f 73/73/73 74/74/74 75/75/75
f 74/74/74 76/76/76 75/75/75
f 77/77/77 78/78/78 79/79/79
f 78/78/78 80/80/80 79/79/79
f 81/81/81 82/82/82 83/83/83
f 82/82/82 84/84/84 83/83/83
f 80/80/80 78/78/78 75/75/75
f 78/78/78 73/73/73 75/75/75
f 79/79/79 83/83/83 77/77/77
f 83/83/83 84/84/84 77/77/77
f 76/76/76 74/74/74 85/85/85
f 74/74/74 86/86/86 85/85/85
f 87/87/87 88/88/88 89/89/89
f 89/89/89 88/88/88 90/90/90
f 90/90/90 88/88/88 91/91/91
f 92/92/92 91/91/91 88/88/88

